<?xml version="1.0" encoding="utf-8"?>
<!DOCTYPE svg PUBLIC "-//W3C//DTD SVG 1.1//EN" "http://www.w3.org/Graphics/SVG/1.1/DTD/svg11.dtd">
<svg version="1.1" id="Layer_1" xmlns="http://www.w3.org/2000/svg" xmlns:xlink="http://www.w3.org/1999/xlink" x="0px" y="0px"
	 width="640.9px" height="347px" viewBox="0 0 640.9 347" enable-background="new 0 0 640.9 347" xml:space="preserve">
<line fill="none" stroke="#CBCECA" stroke-miterlimit="10" stroke-opacity="0.6" x1="175.5" y1="53" x2="175.5" y2="282"/>
<line fill="none" stroke="#CBCECA" stroke-miterlimit="10" stroke-opacity="0.6" x1="258.5" y1="53" x2="258.5" y2="282"/>
<line fill="none" stroke="#CBCECA" stroke-miterlimit="10" stroke-opacity="0.6" x1="342.5" y1="53" x2="342.5" y2="282"/>
<line fill="none" stroke="#CBCECA" stroke-miterlimit="10" stroke-opacity="0.6" x1="426.5" y1="53" x2="426.5" y2="282"/>
<line fill="none" stroke="#CBCECA" stroke-miterlimit="10" stroke-opacity="0.6" x1="510.5" y1="53" x2="510.5" y2="282"/>
<line fill="none" stroke="#CBCECA" stroke-miterlimit="10" stroke-opacity="0.6" x1="593.5" y1="53" x2="593.5" y2="282"/>
<g>
	<path d="M51.6,23.1c-0.1-1.1-0.8-1.7-1.8-1.7c-1,0-1.7,0.6-1.7,1.4c0,0.4,0.2,0.7,0.6,1c0.3,0.2,0.3,0.2,1.7,0.8
		c1.2,0.5,1.7,0.9,2.1,1.3c0.3,0.4,0.5,1,0.5,1.6c0,1.6-1.2,2.7-3.1,2.7c-1.1,0-2-0.4-2.6-1.1c-0.4-0.5-0.5-1-0.6-1.9h1
		c0.1,1.3,0.8,2.1,2.1,2.1c1.1,0,1.9-0.7,1.9-1.6c0-0.5-0.2-0.8-0.6-1.1c-0.3-0.3-0.5-0.4-1.5-0.8c-1-0.4-1.6-0.8-1.9-1.1
		c-0.5-0.4-0.8-1-0.8-1.7c0-1.4,1.2-2.4,2.8-2.4c1,0,1.9,0.4,2.4,1.1c0.3,0.4,0.4,0.8,0.4,1.5H51.6z"/>
	<path d="M54.8,30v-9.3h1.1V30H54.8z"/>
	<path d="M63.6,20.7v0.7l-4.8,7.7h4.7V30h-6v-0.8l4.8-7.6h-4.5v-0.9H63.6z"/>
	<path d="M70,24.7v0.9h-3.8v3.5h4.2V30h-5.2v-9.3h5.1v0.9h-4.1v3.1H70z"/>
	<path d="M82.9,25.3c0,2.9-1.5,4.8-3.8,4.8c-2.3,0-3.8-1.9-3.8-4.9c0-2.8,1.6-4.8,3.8-4.8C81.3,20.5,82.9,22.4,82.9,25.3z
		 M76.4,25.3c0,2.4,1.1,4,2.7,4c1.6,0,2.7-1.6,2.7-3.9c0-2.4-1.1-3.9-2.7-3.9S76.4,23,76.4,25.3z"/>
	<path d="M89.6,24.7v0.9h-3.8V30h-1.1v-9.3h5.1v0.9h-4.1v3.1H89.6z"/>
	<path d="M96.8,20.7c1.3,0,1.8,0.1,2.3,0.2c0.9,0.3,1.4,1.1,1.4,2.1c0,1.1-0.5,1.7-1.6,2c1.4,0.3,2,1.1,2,2.4c0,1.1-0.6,2.1-1.6,2.4
		C98.9,30,98.3,30,96.7,30h-1.6v-9.3H96.8z M97,24.7c0.9,0,1.4-0.1,1.8-0.3c0.4-0.2,0.7-0.7,0.7-1.3c0-0.6-0.3-1.1-0.8-1.3
		c-0.4-0.1-0.7-0.2-1.7-0.2h-0.8v3.1H97z M97.1,29.1c1.1,0,1.6-0.1,2-0.2c0.5-0.2,0.8-0.8,0.8-1.5c0-0.8-0.4-1.4-1.1-1.6
		c-0.4-0.1-0.8-0.2-1.8-0.2h-0.9v3.6H97.1z"/>
	<path d="M106,20.6l3.2,9.4h-1.1l-0.8-2.5h-3.5l-0.8,2.5h-1.1l3.2-9.4H106z M105.5,22l-1.5,4.7h2.9L105.5,22z"/>
	<path d="M115.1,23.1c-0.1-1.1-0.8-1.7-1.8-1.7c-1,0-1.7,0.6-1.7,1.4c0,0.4,0.2,0.7,0.6,1c0.3,0.2,0.3,0.2,1.7,0.8
		c1.2,0.5,1.7,0.9,2.1,1.3c0.3,0.4,0.5,1,0.5,1.6c0,1.6-1.2,2.7-3.1,2.7c-1.1,0-2-0.4-2.6-1.1c-0.4-0.5-0.5-1-0.6-1.9h1
		c0.1,1.3,0.8,2.1,2.1,2.1c1.1,0,1.9-0.7,1.9-1.6c0-0.5-0.2-0.8-0.6-1.1c-0.3-0.3-0.5-0.4-1.5-0.8c-1-0.4-1.6-0.8-1.9-1.1
		c-0.5-0.4-0.8-1-0.8-1.7c0-1.4,1.2-2.4,2.8-2.4c1,0,1.9,0.4,2.4,1.1c0.3,0.4,0.4,0.8,0.4,1.5H115.1z"/>
	<path d="M123.2,24.7v0.9h-3.8v3.5h4.2V30h-5.2v-9.3h5.1v0.9h-4.1v3.1H123.2z"/>
	<path d="M128.9,30v-9.3h1.1V30H128.9z"/>
	<path d="M133.9,20.7l2.6,8.2l2.6-8.2h1.6V30h-1v-8.3l-2.7,8.3H136l-2.7-8.3V30h-1v-9.3H133.9z"/>
	<path d="M146.4,20.6l3.2,9.4h-1.1l-0.8-2.5h-3.5l-0.8,2.5h-1.1l3.2-9.4H146.4z M145.9,22l-1.5,4.7h2.9L145.9,22z"/>
	<path d="M157.7,25.4v3.8c-0.9,0.6-1.9,1-3.1,1c-2.5,0-4-1.8-4-4.9c0-2.9,1.5-4.8,3.9-4.8c1.8,0,2.9,1,3.1,2.7h-1
		c-0.3-1.2-1-1.8-2.1-1.8c-1.7,0-2.8,1.5-2.8,3.9c0,2.5,1.1,3.9,2.9,3.9c0.7,0,1.4-0.2,2.1-0.6v-2.4h-1.9v-0.9H157.7z"/>
	<path d="M164.6,24.7v0.9h-3.8v3.5h4.2V30h-5.2v-9.3h5.1v0.9h-4.1v3.1H164.6z"/>
	<path d="M171.2,23.1c-0.1-1.1-0.8-1.7-1.8-1.7c-1,0-1.7,0.6-1.7,1.4c0,0.4,0.2,0.7,0.6,1c0.3,0.2,0.3,0.2,1.7,0.8
		c1.2,0.5,1.7,0.9,2.1,1.3c0.3,0.4,0.5,1,0.5,1.6c0,1.6-1.2,2.7-3.1,2.7c-1.1,0-2-0.4-2.6-1.1c-0.4-0.5-0.5-1-0.6-1.9h1
		c0.1,1.3,0.8,2.1,2.1,2.1c1.1,0,1.9-0.7,1.9-1.6c0-0.5-0.2-0.8-0.6-1.1c-0.3-0.3-0.5-0.4-1.5-0.8c-1-0.4-1.6-0.8-1.9-1.1
		c-0.5-0.4-0.8-1-0.8-1.7c0-1.4,1.2-2.4,2.8-2.4c1,0,1.9,0.4,2.4,1.1c0.3,0.4,0.4,0.8,0.4,1.5H171.2z"/>
	<path d="M178,20.7l1.8,8l1.9-8h0.9l1.9,8l1.8-8h1l-2.2,9.4h-1.1l-1.8-7.3l-1.8,7.3h-1.1l-2.2-9.4H178z"/>
	<path d="M188.8,30v-9.3h1.1V30H188.8z"/>
	<path d="M197.3,20.7v0.9h-2.4V30h-1.1v-8.4h-2.4v-0.9H197.3z"/>
	<path d="M204.2,24.7v-4h1.1V30h-1.1v-4.5h-4.4V30h-1.1v-9.3h1.1v4H204.2z"/>
	<path d="M212.1,20.7v5.5c0,1.4,0.1,1.8,0.3,2.2c0.4,0.5,1.1,0.9,1.9,0.9c1,0,1.8-0.4,2.1-1.1c0.2-0.4,0.2-0.7,0.2-1.9v-5.5h1.1v5.5
		c0,1.5,0,1.7-0.2,2.2c-0.4,1.1-1.6,1.7-3.1,1.7c-1.5,0-2.6-0.6-3.1-1.7c-0.2-0.5-0.2-0.8-0.2-2.2v-5.5H212.1z"/>
	<path d="M221.6,20.7c1.3,0,1.8,0.1,2.3,0.2c0.9,0.3,1.4,1.1,1.4,2.1c0,1.1-0.5,1.7-1.6,2c1.4,0.3,2,1.1,2,2.4
		c0,1.1-0.6,2.1-1.6,2.4c-0.6,0.2-1.1,0.2-2.7,0.2h-1.6v-9.3H221.6z M221.8,24.7c0.9,0,1.4-0.1,1.8-0.3c0.4-0.2,0.7-0.7,0.7-1.3
		c0-0.6-0.3-1.1-0.8-1.3c-0.4-0.1-0.7-0.2-1.7-0.2h-0.8v3.1H221.8z M221.9,29.1c1.1,0,1.6-0.1,2-0.2c0.5-0.2,0.8-0.8,0.8-1.5
		c0-0.8-0.4-1.4-1.1-1.6c-0.4-0.1-0.8-0.2-1.8-0.2h-0.9v3.6H221.9z"/>
	<path d="M228.5,20.7v5.5c0,1.4,0.1,1.8,0.3,2.2c0.4,0.5,1.1,0.9,1.9,0.9c1,0,1.8-0.4,2.1-1.1c0.2-0.4,0.2-0.7,0.2-1.9v-5.5h1.1v5.5
		c0,1.5,0,1.7-0.2,2.2c-0.4,1.1-1.6,1.7-3.1,1.7c-1.5,0-2.6-0.6-3.1-1.7c-0.2-0.5-0.2-0.8-0.2-2.2v-5.5H228.5z"/>
	<path d="M237.5,20.7l4.5,7.8v-7.8h1V30h-1.1l-4.5-7.8V30h-1v-9.3H237.5z"/>
	<path d="M250.3,20.7v0.9h-2.4V30h-1.1v-8.4h-2.4v-0.9H250.3z"/>
	<path d="M252.8,20.7v5.5c0,1.4,0.1,1.8,0.3,2.2c0.4,0.5,1.1,0.9,1.9,0.9c1,0,1.8-0.4,2.1-1.1c0.2-0.4,0.2-0.7,0.2-1.9v-5.5h1.1v5.5
		c0,1.5,0,1.7-0.2,2.2c-0.4,1.1-1.6,1.7-3.1,1.7c-1.5,0-2.6-0.6-3.1-1.7c-0.2-0.5-0.2-0.8-0.2-2.2v-5.5H252.8z"/>
	<path fill="#9BA29B" d="M265.3,22.2c1.2,0,1.7-0.4,1.9-1.4h0.7V30h-1v-7.1h-1.6V22.2z"/>
	<path fill="#9BA29B" d="M275.8,20.7c-1,1.1-2,2.4-2.6,3.4c0.4-0.2,0.6-0.3,1-0.3c1.5,0,2.5,1.3,2.5,3.1c0,1.9-1.1,3.2-2.7,3.2
		c-1.7,0-2.8-1.3-2.8-3.2c0-1.8,1-3.7,3.4-6.3H275.8z M272.4,27c0,1.3,0.7,2.3,1.7,2.3c1,0,1.7-0.9,1.7-2.3c0-1.3-0.7-2.3-1.7-2.3
		C273.1,24.7,272.4,25.6,272.4,27z"/>
	<path fill="#9BA29B" d="M280.4,29.3c0,0.4-0.4,0.8-0.8,0.8c-0.4,0-0.8-0.4-0.8-0.8c0-0.5,0.4-0.8,0.8-0.8
		C280,28.5,280.4,28.9,280.4,29.3z"/>
	<path fill="#9BA29B" d="M288.1,25.4c0,2.9-1.1,4.7-3,4.7c-0.8,0-1.6-0.4-2-1c-0.6-0.9-1-2.1-1-3.7c0-3,1.1-4.7,3-4.7
		C287,20.8,288.1,22.5,288.1,25.4z M283.8,22.4c-0.4,0.7-0.6,1.8-0.6,3c0,1.2,0.2,2.3,0.6,3c0.3,0.5,0.8,0.8,1.3,0.8
		c0.6,0,1.1-0.3,1.3-0.8c0.4-0.7,0.6-1.8,0.6-3c0-1.2-0.2-2.3-0.6-3c-0.3-0.5-0.8-0.8-1.3-0.8C284.5,21.6,284.1,21.9,283.8,22.4z"/>
	<path fill="#9BA29B" d="M295.7,26.9v0.9h-1.6v2.3h-1v-2.3h-3.7V27l3.7-6.2h1.1v6.1H295.7z M293.2,22.1l-2.8,4.8h2.8L293.2,22.1z"/>
</g>
<g>
	<path d="M123.7,60v5.5c0,1.4,0.1,1.8,0.3,2.2c0.4,0.5,1.1,0.9,1.9,0.9c1,0,1.8-0.4,2.1-1.1c0.2-0.4,0.2-0.7,0.2-1.9V60h1.1v5.5
		c0,1.5,0,1.7-0.2,2.2c-0.4,1.1-1.6,1.7-3.1,1.7c-1.5,0-2.6-0.6-3.1-1.7c-0.2-0.5-0.2-0.8-0.2-2.2V60H123.7z"/>
	<path d="M133.2,60c1.3,0,1.8,0.1,2.3,0.2c0.9,0.3,1.4,1.1,1.4,2.1c0,1.1-0.5,1.7-1.6,2c1.4,0.3,2,1.1,2,2.4c0,1.1-0.6,2.1-1.6,2.4
		c-0.6,0.2-1.1,0.2-2.7,0.2h-1.6V60H133.2z M133.5,64c0.9,0,1.4-0.1,1.8-0.3c0.4-0.2,0.7-0.7,0.7-1.3c0-0.6-0.3-1.1-0.8-1.3
		c-0.4-0.1-0.7-0.2-1.7-0.2h-0.8V64H133.5z M133.5,68.4c1.1,0,1.6-0.1,2-0.2c0.5-0.2,0.8-0.8,0.8-1.5c0-0.8-0.4-1.4-1.1-1.6
		c-0.4-0.1-0.8-0.2-1.8-0.2h-0.9v3.6H133.5z"/>
	<path d="M140.1,60v5.5c0,1.4,0.1,1.8,0.3,2.2c0.4,0.5,1.1,0.9,1.9,0.9c1,0,1.8-0.4,2.1-1.1c0.2-0.4,0.2-0.7,0.2-1.9V60h1.1v5.5
		c0,1.5,0,1.7-0.2,2.2c-0.4,1.1-1.6,1.7-3.1,1.7c-1.5,0-2.6-0.6-3.1-1.7c-0.2-0.5-0.2-0.8-0.2-2.2V60H140.1z"/>
	<path d="M149.1,60l4.5,7.8V60h1v9.3h-1.1l-4.5-7.8v7.8h-1V60H149.1z"/>
	<path d="M162,60v0.9h-2.4v8.4h-1.1v-8.4h-2.4V60H162z"/>
	<path d="M164.4,60v5.5c0,1.4,0.1,1.8,0.3,2.2c0.4,0.5,1.1,0.9,1.9,0.9c1,0,1.8-0.4,2.1-1.1c0.2-0.4,0.2-0.7,0.2-1.9V60h1.1v5.5
		c0,1.5,0,1.7-0.2,2.2c-0.4,1.1-1.6,1.7-3.1,1.7c-1.5,0-2.6-0.6-3.1-1.7c-0.2-0.5-0.2-0.8-0.2-2.2V60H164.4z"/>
</g>
<g>
	<path d="M34.5,111.8v5.5c0,1.4,0.1,1.8,0.3,2.2c0.4,0.5,1.1,0.9,1.9,0.9c1,0,1.8-0.4,2.1-1.1c0.2-0.4,0.2-0.7,0.2-1.9v-5.5h1.1v5.5
		c0,1.5,0,1.7-0.2,2.2c-0.4,1.1-1.6,1.7-3.1,1.7c-1.5,0-2.6-0.6-3.1-1.7c-0.2-0.5-0.2-0.8-0.2-2.2v-5.5H34.5z"/>
	<path d="M44.1,111.8c1.3,0,1.8,0.1,2.3,0.2c0.9,0.3,1.4,1.1,1.4,2.1c0,1.1-0.5,1.7-1.6,2c1.4,0.3,2,1.1,2,2.4
		c0,1.1-0.6,2.1-1.6,2.4c-0.6,0.2-1.1,0.2-2.7,0.2h-1.6v-9.3H44.1z M44.3,115.9c0.9,0,1.4-0.1,1.8-0.3c0.4-0.2,0.7-0.7,0.7-1.3
		c0-0.6-0.3-1.1-0.8-1.3c-0.4-0.1-0.7-0.2-1.7-0.2h-0.8v3.1H44.3z M44.3,120.3c1.1,0,1.6-0.1,2-0.2c0.5-0.2,0.8-0.8,0.8-1.5
		c0-0.8-0.4-1.4-1.1-1.6c-0.4-0.1-0.8-0.2-1.8-0.2h-0.9v3.6H44.3z"/>
	<path d="M51,111.8v5.5c0,1.4,0.1,1.8,0.3,2.2c0.4,0.5,1.1,0.9,1.9,0.9c1,0,1.8-0.4,2.1-1.1c0.2-0.4,0.2-0.7,0.2-1.9v-5.5h1.1v5.5
		c0,1.5,0,1.7-0.2,2.2c-0.4,1.1-1.6,1.7-3.1,1.7c-1.5,0-2.6-0.6-3.1-1.7c-0.2-0.5-0.2-0.8-0.2-2.2v-5.5H51z"/>
	<path d="M59.9,111.8l4.5,7.8v-7.8h1v9.3h-1.1l-4.5-7.8v7.8h-1v-9.3H59.9z"/>
	<path d="M72.8,111.8v0.9h-2.4v8.4h-1.1v-8.4h-2.4v-0.9H72.8z"/>
	<path d="M75.2,111.8v5.5c0,1.4,0.1,1.8,0.3,2.2c0.4,0.5,1.1,0.9,1.9,0.9c1,0,1.8-0.4,2.1-1.1c0.2-0.4,0.2-0.7,0.2-1.9v-5.5h1.1v5.5
		c0,1.5,0,1.7-0.2,2.2c-0.4,1.1-1.6,1.7-3.1,1.7c-1.5,0-2.6-0.6-3.1-1.7c-0.2-0.5-0.2-0.8-0.2-2.2v-5.5H75.2z"/>
	<path d="M85.7,117.3v0.8h-3.8v-0.8H85.7z"/>
	<path d="M88.3,111.8c1.8,0,2.5,0.1,3.3,0.5c1.3,0.7,2.1,2.3,2.1,4.1c0,1.9-0.8,3.5-2.2,4.2c-0.8,0.4-1.4,0.5-3.3,0.5h-1.4v-9.3
		H88.3z M88.6,120.3c1.5,0,1.9-0.1,2.5-0.5c0.9-0.6,1.5-1.8,1.5-3.3c0-1.6-0.6-2.8-1.6-3.4c-0.6-0.3-1-0.4-2.6-0.4h-0.4v7.5H88.6z"
		/>
	<path d="M100.5,115.9v0.9h-3.8v3.5h4.2v0.9h-5.2v-9.3h5.1v0.9h-4.1v3.1H100.5z"/>
	<path d="M104.4,111.8c1.3,0,1.8,0.1,2.3,0.2c0.9,0.3,1.4,1.1,1.4,2.1c0,1.1-0.5,1.7-1.6,2c1.4,0.3,2,1.1,2,2.4
		c0,1.1-0.6,2.1-1.6,2.4c-0.6,0.2-1.1,0.2-2.7,0.2h-1.6v-9.3H104.4z M104.6,115.9c0.9,0,1.4-0.1,1.8-0.3c0.4-0.2,0.7-0.7,0.7-1.3
		c0-0.6-0.3-1.1-0.8-1.3c-0.4-0.1-0.7-0.2-1.7-0.2h-0.8v3.1H104.6z M104.6,120.3c1.1,0,1.6-0.1,2-0.2c0.5-0.2,0.8-0.8,0.8-1.5
		c0-0.8-0.4-1.4-1.1-1.6c-0.4-0.1-0.8-0.2-1.8-0.2h-0.9v3.6H104.6z"/>
	<path d="M117.5,116.5c0,2.9-1.5,4.8-3.8,4.8c-2.3,0-3.8-1.9-3.8-4.9c0-2.8,1.6-4.8,3.8-4.8C115.9,111.7,117.5,113.6,117.5,116.5z
		 M111,116.5c0,2.4,1.1,4,2.7,4c1.6,0,2.7-1.6,2.7-3.9c0-2.4-1.1-3.9-2.7-3.9S111,114.1,111,116.5z"/>
	<path d="M126.5,116.5c0,2.9-1.5,4.8-3.8,4.8c-2.3,0-3.8-1.9-3.8-4.9c0-2.8,1.6-4.8,3.8-4.8C125,111.7,126.5,113.6,126.5,116.5z
		 M120,116.5c0,2.4,1.1,4,2.7,4c1.6,0,2.7-1.6,2.7-3.9c0-2.4-1.1-3.9-2.7-3.9S120,114.1,120,116.5z"/>
	<path d="M133.4,111.8v0.9H131v8.4H130v-8.4h-2.4v-0.9H133.4z"/>
	<path d="M139.3,114.3c-0.1-1.1-0.8-1.7-1.8-1.7c-1,0-1.7,0.6-1.7,1.4c0,0.4,0.2,0.7,0.6,1c0.3,0.2,0.3,0.2,1.7,0.8
		c1.2,0.5,1.7,0.9,2.1,1.3c0.3,0.4,0.5,1,0.5,1.6c0,1.6-1.2,2.7-3.1,2.7c-1.1,0-2-0.4-2.6-1.1c-0.4-0.5-0.5-1-0.6-1.9h1
		c0.1,1.3,0.8,2.1,2.1,2.1c1.1,0,1.9-0.7,1.9-1.6c0-0.5-0.2-0.8-0.6-1.1c-0.3-0.3-0.5-0.4-1.5-0.8c-1-0.4-1.6-0.8-1.9-1.1
		c-0.5-0.4-0.8-1-0.8-1.7c0-1.4,1.2-2.4,2.8-2.4c1,0,1.9,0.4,2.4,1.1c0.3,0.4,0.4,0.8,0.4,1.5H139.3z"/>
	<path d="M147.6,111.8v0.9h-2.4v8.4h-1.1v-8.4h-2.4v-0.9H147.6z"/>
	<path d="M150.7,111.8c1.4,0,2,0.1,2.6,0.3c0.9,0.4,1.5,1.2,1.5,2.4c0,1.2-0.6,2.1-1.9,2.5l2.5,4.2h-1.3l-2.4-4h-1.6v4h-1.1v-9.3
		H150.7z M150.8,116.3c1.1,0,1.5,0,1.9-0.2c0.7-0.2,1.1-0.8,1.1-1.6c0-0.7-0.3-1.3-0.9-1.5c-0.4-0.2-0.8-0.2-2.1-0.2h-0.6v3.5H150.8
		z"/>
	<path d="M160.1,111.8l3.2,9.4h-1.1l-0.8-2.5h-3.5l-0.8,2.5H156l3.2-9.4H160.1z M159.7,113.2l-1.5,4.7h2.9L159.7,113.2z"/>
	<path d="M166.4,111.8c1.4,0,2,0.1,2.6,0.3c1,0.3,1.7,1.3,1.7,2.5c0,1.1-0.5,2.1-1.5,2.4c-0.6,0.2-1.2,0.3-2.6,0.3h-0.7v3.8h-1.1
		v-9.3H166.4z M166.5,116.5c1,0,1.3,0,1.7-0.1c0.8-0.2,1.2-0.8,1.2-1.7c0-0.8-0.4-1.4-1-1.7c-0.5-0.2-0.8-0.2-2.1-0.2h-0.5v3.7
		H166.5z"/>
</g>
<g>
	<path d="M14,160.7c1.3,0,1.8,0.1,2.3,0.2c0.9,0.3,1.4,1.1,1.4,2.1c0,1.1-0.5,1.7-1.6,2c1.4,0.3,2,1.1,2,2.4c0,1.1-0.6,2.1-1.6,2.4
		c-0.6,0.2-1.1,0.2-2.7,0.2h-1.6v-9.3H14z M14.2,164.7c0.9,0,1.4-0.1,1.8-0.3c0.4-0.2,0.7-0.7,0.7-1.3c0-0.6-0.3-1.1-0.8-1.3
		c-0.4-0.1-0.7-0.2-1.7-0.2h-0.8v3.1H14.2z M14.3,169.1c1.1,0,1.6-0.1,2-0.2c0.5-0.2,0.8-0.8,0.8-1.5c0-0.8-0.4-1.4-1.1-1.6
		c-0.4-0.1-0.8-0.2-1.8-0.2h-0.9v3.6H14.3z"/>
	<path d="M21.1,160.7v8.4h4v0.9H20v-9.3H21.1z"/>
	<path d="M26.6,170v-9.3h1.1v9.3H26.6z"/>
	<path d="M35.1,160.7v0.9h-2.4v8.4h-1.1v-8.4h-2.4v-0.9H35.1z"/>
	<path d="M41.9,160.7v0.7l-4.8,7.7h4.7v0.9h-6v-0.8l4.8-7.6h-4.5v-0.9H41.9z"/>
	<path d="M44.6,160.7l4.5,7.8v-7.8h1v9.3h-1.1l-4.5-7.8v7.8h-1v-9.3H44.6z"/>
	<path d="M59.6,165.3c0,2.9-1.5,4.8-3.8,4.8c-2.3,0-3.8-1.9-3.8-4.9c0-2.8,1.6-4.8,3.8-4.8C58.1,160.5,59.6,162.4,59.6,165.3z
		 M53.1,165.3c0,2.4,1.1,4,2.7,4c1.6,0,2.7-1.6,2.7-3.9c0-2.4-1.1-3.9-2.7-3.9S53.1,163,53.1,165.3z"/>
	<path d="M66.5,160.7v0.9h-2.4v8.4H63v-8.4h-2.4v-0.9H66.5z"/>
	<path d="M72.9,164.7v0.9h-3.8v3.5h4.2v0.9H68v-9.3h5.1v0.9h-4.1v3.1H72.9z"/>
	<path d="M80.1,160.7h1l-5.5,11.4h-1L80.1,160.7z"/>
	<path d="M84.5,160.7c1.8,0,2.5,0.1,3.3,0.5c1.3,0.7,2.1,2.3,2.1,4.1c0,1.9-0.8,3.5-2.2,4.2c-0.8,0.4-1.4,0.5-3.3,0.5H83v-9.3H84.5z
		 M84.8,169.1c1.5,0,1.9-0.1,2.5-0.5c0.9-0.6,1.5-1.8,1.5-3.3c0-1.6-0.6-2.8-1.6-3.4c-0.6-0.3-1-0.4-2.6-0.4h-0.4v7.5H84.8z"/>
	<path d="M96.6,164.7v0.9h-3.8v3.5H97v0.9h-5.2v-9.3h5.1v0.9h-4.1v3.1H96.6z"/>
	<path d="M100.5,160.7c1.3,0,1.8,0.1,2.3,0.2c0.9,0.3,1.4,1.1,1.4,2.1c0,1.1-0.5,1.7-1.6,2c1.4,0.3,2,1.1,2,2.4
		c0,1.1-0.6,2.1-1.6,2.4c-0.6,0.2-1.1,0.2-2.7,0.2h-1.6v-9.3H100.5z M100.8,164.7c0.9,0,1.4-0.1,1.8-0.3c0.4-0.2,0.7-0.7,0.7-1.3
		c0-0.6-0.3-1.1-0.8-1.3c-0.4-0.1-0.7-0.2-1.7-0.2h-0.8v3.1H100.8z M100.8,169.1c1.1,0,1.6-0.1,2-0.2c0.5-0.2,0.8-0.8,0.8-1.5
		c0-0.8-0.4-1.4-1.1-1.6c-0.4-0.1-0.8-0.2-1.8-0.2h-0.9v3.6H100.8z"/>
	<path d="M113.6,165.3c0,2.9-1.5,4.8-3.8,4.8c-2.3,0-3.8-1.9-3.8-4.9c0-2.8,1.6-4.8,3.8-4.8C112.1,160.5,113.6,162.4,113.6,165.3z
		 M107.1,165.3c0,2.4,1.1,4,2.7,4c1.6,0,2.7-1.6,2.7-3.9c0-2.4-1.1-3.9-2.7-3.9S107.1,163,107.1,165.3z"/>
	<path d="M122.7,165.3c0,2.9-1.5,4.8-3.8,4.8c-2.3,0-3.8-1.9-3.8-4.9c0-2.8,1.6-4.8,3.8-4.8C121.1,160.5,122.7,162.4,122.7,165.3z
		 M116.2,165.3c0,2.4,1.1,4,2.7,4c1.6,0,2.7-1.6,2.7-3.9c0-2.4-1.1-3.9-2.7-3.9S116.2,163,116.2,165.3z"/>
	<path d="M129.6,160.7v0.9h-2.4v8.4h-1.1v-8.4h-2.4v-0.9H129.6z"/>
	<path d="M135.5,163.1c-0.1-1.1-0.8-1.7-1.8-1.7c-1,0-1.7,0.6-1.7,1.4c0,0.4,0.2,0.7,0.6,1c0.3,0.2,0.3,0.2,1.7,0.8
		c1.2,0.5,1.7,0.9,2.1,1.3c0.3,0.4,0.5,1,0.5,1.6c0,1.6-1.2,2.7-3.1,2.7c-1.1,0-2-0.4-2.6-1.1c-0.4-0.5-0.5-1-0.6-1.9h1
		c0.1,1.3,0.8,2.1,2.1,2.1c1.1,0,1.9-0.7,1.9-1.6c0-0.5-0.2-0.8-0.6-1.1c-0.3-0.3-0.5-0.4-1.5-0.8c-1-0.4-1.6-0.8-1.9-1.1
		c-0.5-0.4-0.8-1-0.8-1.7c0-1.4,1.2-2.4,2.8-2.4c1,0,1.9,0.4,2.4,1.1c0.3,0.4,0.4,0.8,0.4,1.5H135.5z"/>
	<path d="M143.7,160.7v0.9h-2.4v8.4h-1.1v-8.4h-2.4v-0.9H143.7z"/>
	<path d="M146.9,160.7c1.4,0,2,0.1,2.6,0.3c0.9,0.4,1.5,1.2,1.5,2.4c0,1.2-0.6,2.1-1.9,2.5l2.5,4.2h-1.3l-2.4-4h-1.6v4h-1.1v-9.3
		H146.9z M146.9,165.1c1.1,0,1.5,0,1.9-0.2c0.7-0.2,1.1-0.8,1.1-1.6c0-0.7-0.3-1.3-0.9-1.5c-0.4-0.2-0.8-0.2-2.1-0.2h-0.6v3.5H146.9
		z"/>
	<path d="M156.3,160.6l3.2,9.4h-1.1l-0.8-2.5h-3.5l-0.8,2.5h-1.1l3.2-9.4H156.3z M155.8,162l-1.5,4.7h2.9L155.8,162z"/>
	<path d="M162.5,160.7c1.4,0,2,0.1,2.6,0.3c1,0.3,1.7,1.3,1.7,2.5c0,1.1-0.5,2.1-1.5,2.4c-0.6,0.2-1.2,0.3-2.6,0.3h-0.7v3.8H161
		v-9.3H162.5z M162.7,165.3c1,0,1.3,0,1.7-0.1c0.8-0.2,1.2-0.8,1.2-1.7c0-0.8-0.4-1.4-1-1.7c-0.5-0.2-0.8-0.2-2.1-0.2h-0.5v3.7
		H162.7z"/>
	<path d="M171,166.1v0.8h-3.8v-0.8H171z"/>
	<path d="M129.5,177.4l3.2,9.4h-1.1l-0.8-2.5h-3.5l-0.8,2.5h-1.1l3.2-9.4H129.5z M129,178.8l-1.5,4.7h2.9L129,178.8z"/>
	<path d="M135.8,177.5l2.6,8.2l2.6-8.2h1.6v9.3h-1v-8.3l-2.7,8.3h-1.1l-2.7-8.3v8.3h-1v-9.3H135.8z"/>
	<path d="M146.5,177.5c1.8,0,2.5,0.1,3.3,0.5c1.3,0.7,2.1,2.3,2.1,4.1c0,1.9-0.8,3.5-2.2,4.2c-0.8,0.4-1.4,0.5-3.3,0.5H145v-9.3
		H146.5z M146.7,185.9c1.5,0,1.9-0.1,2.5-0.5c0.9-0.6,1.5-1.8,1.5-3.3c0-1.6-0.6-2.8-1.6-3.4c-0.6-0.3-1-0.4-2.6-0.4h-0.4v7.5H146.7
		z"/>
	<path d="M158.1,177.5c-1,1.1-2,2.4-2.6,3.4c0.4-0.2,0.6-0.3,1-0.3c1.5,0,2.5,1.3,2.5,3.1c0,1.9-1.1,3.2-2.7,3.2
		c-1.7,0-2.8-1.3-2.8-3.2c0-1.8,1-3.7,3.4-6.3H158.1z M154.6,183.8c0,1.3,0.7,2.3,1.7,2.3c1,0,1.7-0.9,1.7-2.3
		c0-1.3-0.7-2.3-1.7-2.3C155.3,181.5,154.6,182.4,154.6,183.8z"/>
	<path d="M166.9,183.7v0.9h-1.6v2.3h-1v-2.3h-3.7v-0.8l3.7-6.2h1.1v6.1H166.9z M164.4,178.9l-2.8,4.8h2.8L164.4,178.9z"/>
</g>
<rect x="175" y="58" fill="#00B4D6" width="401" height="16"/>
<rect x="175" y="58" fill="#435469" width="161" height="16"/>
<rect x="175" y="110" fill="#00B4D6" width="290" height="16"/>
<rect x="175" y="110" fill="#435469" width="117" height="16"/>
<rect x="175" y="162" fill="#00B4D6" width="151" height="16"/>
<rect x="175" y="162" fill="#435469" width="57" height="16"/>
<rect x="175" y="162" fill="#A23296" width="34" height="16"/>
<rect x="175" y="237" fill="#00B4D6" width="84" height="16"/>
<rect x="175" y="237" fill="#435469" width="33" height="16"/>
<rect x="175" y="237" fill="#A23296" width="17" height="16"/>
<g>
	<path fill="#9BA29B" d="M291.9,188.5v0.9h-1.6v2.3h-1v-2.3h-3.7v-0.8l3.7-6.2h1.1v6.1H291.9z M289.3,183.8l-2.8,4.8h2.8
		L289.3,183.8z"/>
	<path fill="#9BA29B" d="M298.4,182.5l-0.1,0.9h-3.3l-0.4,2.7c0.5-0.5,0.9-0.6,1.6-0.6c1.6,0,2.7,1.2,2.7,3c0,0.8-0.2,1.5-0.7,2.1
		c-0.6,0.8-1.3,1.2-2.3,1.2c-1.5,0-2.5-0.9-2.6-2.3h1c0.2,0.9,0.7,1.4,1.6,1.4c1.1,0,1.9-1,1.9-2.4c0-1.3-0.7-2.2-1.7-2.2
		c-0.7,0-1.2,0.3-1.6,1l-0.9-0.1l0.6-4.7H298.4z"/>
	<path fill="#9BA29B" d="M306.2,182.3l2.6,8.2l2.6-8.2h1.6v9.3h-1v-8.3l-2.7,8.3h-1.1l-2.7-8.3v8.3h-1v-9.3H306.2z"/>
	<path fill="#9BA29B" d="M316.5,182.9c0,0.4-0.3,0.7-0.7,0.7c-0.4,0-0.7-0.3-0.7-0.7c0-0.4,0.3-0.7,0.7-0.7
		C316.2,182.2,316.5,182.5,316.5,182.9z M316.3,185v6.6h-1V185H316.3z"/>
	<path fill="#9BA29B" d="M320.2,182.3c1.3,0,1.8,0.1,2.3,0.2c0.9,0.3,1.4,1.1,1.4,2.1c0,1.1-0.5,1.7-1.6,2c1.4,0.3,2,1.1,2,2.4
		c0,1.1-0.6,2.1-1.6,2.4c-0.6,0.2-1.1,0.2-2.7,0.2h-1.6v-9.3H320.2z M320.4,186.3c0.9,0,1.4-0.1,1.8-0.3c0.4-0.2,0.7-0.7,0.7-1.3
		c0-0.6-0.3-1.1-0.8-1.3c-0.4-0.1-0.7-0.2-1.7-0.2h-0.8v3.1H320.4z M320.5,190.8c1.1,0,1.6-0.1,2-0.2c0.5-0.2,0.8-0.8,0.8-1.5
		c0-0.8-0.4-1.4-1.1-1.6c-0.4-0.1-0.8-0.2-1.8-0.2h-0.9v3.6H320.5z"/>
</g>
<g>
	<path fill="#9BA29B" d="M426.2,133.8c0-1.4,1.1-2.5,2.5-2.5c1.4,0,2.5,1.1,2.5,2.5c0,0.9-0.4,1.6-1.1,2c0.9,0.5,1.3,1.2,1.3,2.3
		c0,1.6-1.2,2.6-2.8,2.6c-1.6,0-2.8-1.1-2.8-2.6c0-1,0.4-1.8,1.3-2.3C426.5,135.4,426.2,134.7,426.2,133.8z M427,138
		c0,1.1,0.7,1.8,1.7,1.8s1.7-0.7,1.7-1.8c0-1.1-0.7-1.8-1.7-1.8C427.7,136.2,427,137,427,138z M427.2,133.8c0,0.9,0.6,1.6,1.5,1.6
		c0.9,0,1.5-0.7,1.5-1.6c0-0.9-0.6-1.6-1.5-1.6C427.8,132.2,427.2,132.8,427.2,133.8z"/>
	<path fill="#9BA29B" d="M439,131.5v0.8l-4.5,8.3h-1.1l4.4-8.2h-4.5v-1H439z"/>
	<path fill="#9BA29B" d="M446.2,131.2l2.6,8.2l2.6-8.2h1.6v9.3h-1v-8.3l-2.7,8.3h-1.1l-2.7-8.3v8.3h-1v-9.3H446.2z"/>
	<path fill="#9BA29B" d="M456.5,131.8c0,0.4-0.3,0.7-0.7,0.7c-0.4,0-0.7-0.3-0.7-0.7c0-0.4,0.3-0.7,0.7-0.7
		C456.2,131.1,456.5,131.4,456.5,131.8z M456.3,133.9v6.6h-1v-6.6H456.3z"/>
	<path fill="#9BA29B" d="M460.2,131.2c1.3,0,1.8,0.1,2.3,0.2c0.9,0.3,1.4,1.1,1.4,2.1c0,1.1-0.5,1.7-1.6,2c1.4,0.3,2,1.1,2,2.4
		c0,1.1-0.6,2.1-1.6,2.4c-0.6,0.2-1.1,0.2-2.7,0.2h-1.6v-9.3H460.2z M460.4,135.3c0.9,0,1.4-0.1,1.8-0.3c0.4-0.2,0.7-0.7,0.7-1.3
		c0-0.6-0.3-1.1-0.8-1.3c-0.4-0.1-0.7-0.2-1.7-0.2h-0.8v3.1H460.4z M460.5,139.7c1.1,0,1.6-0.1,2-0.2c0.5-0.2,0.8-0.8,0.8-1.5
		c0-0.8-0.4-1.4-1.1-1.6c-0.4-0.1-0.8-0.2-1.8-0.2h-0.9v3.6H460.5z"/>
</g>
<g>
	<path fill="#9BA29B" d="M530.9,80.2c1.2,0,1.7-0.4,1.9-1.4h0.7v9.2h-1v-7.1h-1.6V80.2z"/>
	<path fill="#9BA29B" d="M537.1,81.4c0-1.8,1-2.8,2.7-2.8c1.5,0,2.5,0.9,2.5,2.2c0,0.8-0.2,1.3-1.4,2.8c-0.6,0.7-1.3,1.7-1.6,2.1
		c-0.6,0.8-0.6,0.8-0.9,1.2h4.1v0.9H537v-0.8l2.7-3.5c1.3-1.7,1.4-2,1.4-2.7c0-0.8-0.6-1.3-1.5-1.3c-1,0-1.6,0.6-1.7,1.9H537.1z"/>
	<path fill="#9BA29B" d="M550.2,83.4c0,2.9-1.1,4.7-3,4.7c-0.8,0-1.6-0.4-2-1c-0.6-0.9-1-2.1-1-3.7c0-3,1.1-4.7,3-4.7
		C549,78.7,550.2,80.5,550.2,83.4z M545.8,80.4c-0.4,0.7-0.6,1.8-0.6,3c0,1.2,0.2,2.3,0.6,3c0.3,0.5,0.8,0.8,1.3,0.8
		c0.6,0,1.1-0.3,1.3-0.8c0.4-0.7,0.6-1.8,0.6-3s-0.2-2.3-0.6-3c-0.3-0.5-0.8-0.8-1.3-0.8C546.6,79.5,546.1,79.8,545.8,80.4z"/>
	<path fill="#9BA29B" d="M557.2,78.6l2.6,8.2l2.6-8.2h1.6v9.3h-1v-8.3l-2.7,8.3h-1.1l-2.7-8.3v8.3h-1v-9.3H557.2z"/>
	<path fill="#9BA29B" d="M567.5,79.2c0,0.4-0.3,0.7-0.7,0.7c-0.4,0-0.7-0.3-0.7-0.7c0-0.4,0.3-0.7,0.7-0.7
		C567.2,78.4,567.5,78.8,567.5,79.2z M567.3,81.3v6.6h-1v-6.6H567.3z"/>
	<path fill="#9BA29B" d="M571.2,78.6c1.3,0,1.8,0.1,2.3,0.2c0.9,0.3,1.4,1.1,1.4,2.1c0,1.1-0.5,1.7-1.6,2c1.4,0.3,2,1.1,2,2.4
		c0,1.1-0.6,2.1-1.6,2.4c-0.6,0.2-1.1,0.2-2.7,0.2h-1.6v-9.3H571.2z M571.4,82.6c0.9,0,1.4-0.1,1.8-0.3c0.4-0.2,0.7-0.7,0.7-1.3
		c0-0.6-0.3-1.1-0.8-1.3c-0.4-0.1-0.7-0.2-1.7-0.2h-0.8v3.1H571.4z M571.5,87c1.1,0,1.6-0.1,2-0.2c0.5-0.2,0.8-0.8,0.8-1.5
		c0-0.8-0.4-1.4-1.1-1.6c-0.4-0.1-0.8-0.2-1.8-0.2h-0.9V87H571.5z"/>
</g>
<g>
	<g>
		<path fill="#784191" d="M178.2,292.6l2.5,7.4h-0.9l-0.6-1.9h-2.8l-0.7,1.9H175l2.5-7.4H178.2z M177.8,293.7l-1.2,3.7h2.3
			L177.8,293.7z"/>
		<path fill="#784191" d="M186.2,294.7c-0.2-1-0.8-1.4-1.7-1.4c-1.3,0-2.1,1.2-2.1,3.1c0,1.9,0.8,3.1,2.1,3.1c1,0,1.7-0.7,1.8-1.9
			h0.8c-0.1,1.7-1,2.6-2.5,2.6c-1.9,0-3.1-1.5-3.1-3.8c0-2.3,1.2-3.8,3-3.8c1.4,0,2.2,0.8,2.4,2.2H186.2z"/>
		<path fill="#784191" d="M188.5,300v-7.3h0.8v7.3H188.5z"/>
		<path fill="#784191" d="M193.3,296.9v0.6h-3v-0.6H193.3z"/>
		<path fill="#784191" d="M195.6,293c1.5,0,2.1,0.1,2.7,0.4c1.1,0.5,1.8,1.7,1.8,3.1c0,1.4-0.7,2.6-1.8,3.1
			c-0.6,0.3-1.2,0.4-2.7,0.4h-1.2v-7H195.6z M195.8,299.2c1.2,0,1.6-0.1,2.1-0.3c0.7-0.4,1.2-1.2,1.2-2.3c0-1.1-0.5-2-1.3-2.4
			c-0.5-0.2-0.8-0.3-2.2-0.3h-0.3v5.3H195.8z"/>
		<path fill="#784191" d="M208,296.5c0,2.2-1.3,3.6-3.3,3.6c-2,0-3.3-1.5-3.3-3.7c0-2.1,1.3-3.6,3.3-3.6
			C206.7,292.9,208,294.4,208,296.5z M202.5,296.5c0,1.7,0.9,2.8,2.3,2.8c1.3,0,2.2-1.1,2.2-2.8c0-1.7-0.9-2.8-2.2-2.8
			S202.5,294.8,202.5,296.5z"/>
		<path fill="#784191" d="M210,293l1.5,5.7l1.5-5.7h0.9l1.5,5.7l1.5-5.7h1l-1.9,7h-1.1l-1.4-5.1L212,300h-1.1l-1.9-7H210z"/>
		<path fill="#784191" d="M220.3,293l3.6,5.4V293h1v7h-1.1l-3.6-5.5v5.5h-1v-7H220.3z"/>
		<path fill="#784191" d="M227.9,293v6.1h3.3v0.8h-4.3v-7H227.9z"/>
		<path fill="#784191" d="M238.8,296.5c0,2.2-1.3,3.6-3.3,3.6c-2,0-3.3-1.5-3.3-3.7c0-2.1,1.3-3.6,3.3-3.6
			C237.5,292.9,238.8,294.4,238.8,296.5z M233.3,296.5c0,1.7,0.9,2.8,2.3,2.8c1.3,0,2.2-1.1,2.2-2.8c0-1.7-0.9-2.8-2.2-2.8
			S233.3,294.8,233.3,296.5z"/>
		<path fill="#784191" d="M243.6,293l2.5,7h-1.1l-0.6-1.8h-2.9l-0.6,1.8h-1.1l2.5-7H243.6z M244.2,297.4l-1.2-3.5l-1.2,3.5H244.2z"
			/>
		<path fill="#784191" d="M248.8,293c1.5,0,2.1,0.1,2.7,0.4c1.1,0.5,1.8,1.7,1.8,3.1c0,1.4-0.7,2.6-1.8,3.1
			c-0.6,0.3-1.2,0.4-2.7,0.4h-1.2v-7H248.8z M249.1,299.2c1.2,0,1.6-0.1,2.1-0.3c0.7-0.4,1.2-1.2,1.2-2.3c0-1.1-0.5-2-1.3-2.4
			c-0.5-0.2-0.8-0.3-2.2-0.3h-0.3v5.3H249.1z"/>
	</g>
	<g>
		<path fill="#435469" d="M274.4,293c1.5,0,2.1,0.1,2.7,0.4c1.1,0.5,1.8,1.7,1.8,3.1c0,1.4-0.7,2.6-1.8,3.1
			c-0.6,0.3-1.2,0.4-2.7,0.4h-1.2v-7H274.4z M274.6,299.2c1.2,0,1.6-0.1,2.1-0.3c0.7-0.4,1.2-1.2,1.2-2.3c0-1.1-0.5-2-1.3-2.4
			c-0.5-0.2-0.8-0.3-2.2-0.3h-0.3v5.3H274.6z"/>
		<path fill="#435469" d="M286.8,296.5c0,2.2-1.3,3.6-3.3,3.6c-2,0-3.3-1.5-3.3-3.7c0-2.1,1.3-3.6,3.3-3.6
			C285.5,292.9,286.8,294.4,286.8,296.5z M281.3,296.5c0,1.7,0.9,2.8,2.3,2.8c1.3,0,2.2-1.1,2.2-2.8c0-1.7-0.9-2.8-2.2-2.8
			S281.3,294.8,281.3,296.5z"/>
		<path fill="#435469" d="M293,295.1c-0.2-0.9-0.8-1.4-1.7-1.4c-1.3,0-2.1,1.1-2.1,2.8c0,1.7,0.8,2.8,2.1,2.8c1.1,0,1.7-0.7,1.8-1.8
			h1c-0.1,1.6-1.2,2.6-2.8,2.6c-2,0-3.2-1.4-3.2-3.6c0-2.2,1.3-3.7,3.2-3.7c1.5,0,2.5,0.8,2.7,2.2H293z"/>
		<path fill="#435469" d="M296.7,293v7h-1v-7H296.7z M301.2,293l-3.2,3.3l3.5,3.7h-1.4l-3.4-3.6l3.2-3.3H301.2z"/>
		<path fill="#435469" d="M307.1,296v0.8H304v2.4h3.5v0.8H303v-7h4.4v0.8H304v2.1H307.1z"/>
		<path fill="#435469" d="M310.7,293c1.2,0,1.6,0,2.1,0.2c0.8,0.3,1.3,1,1.3,1.8c0,0.9-0.5,1.6-1.5,1.9l2,3h-1.1l-1.9-2.9h-1.4v2.9
			h-1v-7H310.7z M310.7,296.3c0.9,0,1.2,0,1.5-0.1c0.5-0.2,0.8-0.5,0.8-1.1c0-0.5-0.2-0.9-0.6-1c-0.3-0.1-0.6-0.2-1.7-0.2h-0.6v2.4
			H310.7z"/>
		<path fill="#435469" d="M318.8,296.1v0.8h-3.8v-0.8H318.8z"/>
		<path fill="#435469" d="M325.4,296.5v2.7c-0.8,0.7-1.6,1-2.7,1c-2.1,0-3.3-1.4-3.3-3.6c0-2.2,1.3-3.6,3.3-3.6
			c0.9,0,1.7,0.3,2.2,0.8c0.3,0.3,0.4,0.7,0.5,1.4h-0.9c-0.2-0.9-0.8-1.3-1.8-1.3c-1.4,0-2.2,1.1-2.2,2.8c0,1.7,0.9,2.8,2.3,2.8
			c0.7,0,1.2-0.2,1.8-0.6v-1.4h-1.5v-0.8H325.4z"/>
		<path fill="#435469" d="M331.5,293v0.6l-3.5,5.5h3.5v0.8h-4.7v-0.7l3.5-5.4H327V293H331.5z"/>
	</g>
	<g>
		<path fill="#0081AE" d="M526.3,296v0.8h-3.1v2.4h3.5v0.8h-4.5v-7h4.4v0.8h-3.4v2.1H526.3z"/>
		<path fill="#0081AE" d="M528.8,293l1.7,2.6l1.7-2.6h1.2l-2.3,3.4l2.4,3.6h-1.2l-1.8-2.8l-1.8,2.8h-1.2l2.4-3.6l-2.3-3.4H528.8z"/>
		<path fill="#0081AE" d="M536.3,293c1.2,0,1.7,0,2.2,0.1c0.9,0.2,1.4,1,1.4,2c0,0.9-0.5,1.7-1.2,1.9c-0.4,0.1-1,0.2-2.2,0.2h-0.6
			v2.8h-1v-7H536.3z M536.5,296.4c0.7,0,1.1,0,1.4-0.1c0.6-0.1,0.9-0.5,0.9-1.2c0-0.6-0.3-1.1-0.7-1.2c-0.3-0.1-0.7-0.1-1.8-0.1
			h-0.5v2.6H536.5z"/>
		<path fill="#0081AE" d="M544.4,293l2.5,7h-1.1l-0.6-1.8h-2.9l-0.6,1.8h-1.1l2.5-7H544.4z M545,297.4l-1.2-3.5l-1.2,3.5H545z"/>
		<path fill="#0081AE" d="M549.4,293l3.6,5.4V293h1v7h-1.1l-3.6-5.5v5.5h-1v-7H549.4z"/>
		<path fill="#0081AE" d="M557.3,293c1.5,0,2.1,0.1,2.7,0.4c1.1,0.5,1.8,1.7,1.8,3.1c0,1.4-0.7,2.6-1.8,3.1
			c-0.6,0.3-1.2,0.4-2.7,0.4H556v-7H557.3z M557.5,299.2c1.2,0,1.6-0.1,2.1-0.3c0.7-0.4,1.2-1.2,1.2-2.3c0-1.1-0.5-2-1.3-2.4
			c-0.5-0.2-0.8-0.3-2.2-0.3h-0.3v5.3H557.5z"/>
		<path fill="#0081AE" d="M567.5,296v0.8h-3.1v2.4h3.5v0.8h-4.5v-7h4.4v0.8h-3.4v2.1H567.5z"/>
		<path fill="#0081AE" d="M570.8,293c1.5,0,2.1,0.1,2.7,0.4c1.1,0.5,1.8,1.7,1.8,3.1c0,1.4-0.7,2.6-1.8,3.1
			c-0.6,0.3-1.2,0.4-2.7,0.4h-1.2v-7H570.8z M571.1,299.2c1.2,0,1.6-0.1,2.1-0.3c0.7-0.4,1.2-1.2,1.2-2.3c0-1.1-0.5-2-1.3-2.4
			c-0.5-0.2-0.8-0.3-2.2-0.3h-0.3v5.3H571.1z"/>
	</g>
</g>
<g>
	<path d="M31.5,240.7c1.3,0,1.8,0.1,2.3,0.2c0.9,0.3,1.4,1.1,1.4,2.1c0,1.1-0.5,1.7-1.6,2c1.4,0.3,2,1.1,2,2.4
		c0,1.1-0.6,2.1-1.6,2.4c-0.6,0.2-1.1,0.2-2.7,0.2h-1.6v-9.3H31.5z M31.7,244.7c0.9,0,1.4-0.1,1.8-0.3c0.4-0.2,0.7-0.7,0.7-1.3
		c0-0.6-0.3-1.1-0.8-1.3c-0.4-0.1-0.7-0.2-1.7-0.2h-0.8v3.1H31.7z M31.8,249.1c1.1,0,1.6-0.1,2-0.2c0.5-0.2,0.8-0.8,0.8-1.5
		c0-0.8-0.4-1.4-1.1-1.6c-0.4-0.1-0.8-0.2-1.8-0.2h-0.9v3.6H31.8z"/>
	<path d="M38.5,240.7v8.4h4v0.9h-5.1v-9.3H38.5z"/>
	<path d="M44.1,250v-9.3h1.1v9.3H44.1z"/>
	<path d="M52.6,240.7v0.9h-2.4v8.4h-1.1v-8.4h-2.4v-0.9H52.6z"/>
	<path d="M59.3,240.7v0.7l-4.8,7.7h4.7v0.9h-6v-0.8l4.8-7.6h-4.5v-0.9H59.3z"/>
	<path d="M62.1,240.7l4.5,7.8v-7.8h1v9.3h-1.1l-4.5-7.8v7.8h-1v-9.3H62.1z"/>
	<path d="M77.1,245.3c0,2.9-1.5,4.8-3.8,4.8c-2.3,0-3.8-1.9-3.8-4.9c0-2.8,1.6-4.8,3.8-4.8C75.5,240.5,77.1,242.4,77.1,245.3z
		 M70.6,245.3c0,2.4,1.1,4,2.7,4c1.6,0,2.7-1.6,2.7-3.9c0-2.4-1.1-3.9-2.7-3.9S70.6,243,70.6,245.3z"/>
	<path d="M84,240.7v0.9h-2.4v8.4h-1.1v-8.4h-2.4v-0.9H84z"/>
	<path d="M90.3,244.7v0.9h-3.8v3.5h4.2v0.9h-5.2v-9.3h5.1v0.9h-4.1v3.1H90.3z"/>
	<path d="M97.5,240.7h1L93,252.1h-1L97.5,240.7z"/>
	<path d="M102.2,240.7c1.3,0,1.8,0.1,2.3,0.2c0.9,0.3,1.4,1.1,1.4,2.1c0,1.1-0.5,1.7-1.6,2c1.4,0.3,2,1.1,2,2.4
		c0,1.1-0.6,2.1-1.6,2.4c-0.6,0.2-1.1,0.2-2.7,0.2h-1.6v-9.3H102.2z M102.4,244.7c0.9,0,1.4-0.1,1.8-0.3c0.4-0.2,0.7-0.7,0.7-1.3
		c0-0.6-0.3-1.1-0.8-1.3c-0.4-0.1-0.7-0.2-1.7-0.2h-0.8v3.1H102.4z M102.5,249.1c1.1,0,1.6-0.1,2-0.2c0.5-0.2,0.8-0.8,0.8-1.5
		c0-0.8-0.4-1.4-1.1-1.6c-0.4-0.1-0.8-0.2-1.8-0.2h-0.9v3.6H102.5z"/>
	<path d="M111.4,240.6l3.2,9.4h-1.1l-0.8-2.5h-3.5l-0.8,2.5h-1.1l3.2-9.4H111.4z M110.9,242l-1.5,4.7h2.9L110.9,242z"/>
	<path d="M120.5,243.1c-0.1-1.1-0.8-1.7-1.8-1.7c-1,0-1.7,0.6-1.7,1.4c0,0.4,0.2,0.7,0.6,1c0.3,0.2,0.3,0.2,1.7,0.8
		c1.2,0.5,1.7,0.9,2.1,1.3c0.3,0.4,0.5,1,0.5,1.6c0,1.6-1.2,2.7-3.1,2.7c-1.1,0-2-0.4-2.6-1.1c-0.4-0.5-0.5-1-0.6-1.9h1
		c0.1,1.3,0.8,2.1,2.1,2.1c1.1,0,1.9-0.7,1.9-1.6c0-0.5-0.2-0.8-0.6-1.1c-0.3-0.3-0.5-0.4-1.5-0.8c-1-0.4-1.6-0.8-1.9-1.1
		c-0.5-0.4-0.8-1-0.8-1.7c0-1.4,1.2-2.4,2.8-2.4c1,0,1.9,0.4,2.4,1.1c0.3,0.4,0.4,0.8,0.4,1.5H120.5z"/>
	<path d="M128.6,244.7v0.9h-3.8v3.5h4.2v0.9h-5.2v-9.3h5.1v0.9h-4.1v3.1H128.6z"/>
	<path d="M130.8,250v-9.3h1.1v9.3H130.8z"/>
	<path d="M135.8,240.7l2.6,8.2l2.6-8.2h1.6v9.3h-1v-8.3L139,250h-1.1l-2.7-8.3v8.3h-1v-9.3H135.8z"/>
	<path d="M148.3,240.6l3.2,9.4h-1.1l-0.8-2.5H146l-0.8,2.5h-1.1l3.2-9.4H148.3z M147.8,242l-1.5,4.7h2.9L147.8,242z"/>
	<path d="M159.6,245.4v3.8c-0.9,0.6-1.9,1-3.1,1c-2.5,0-4-1.8-4-4.9c0-2.9,1.5-4.8,3.9-4.8c1.8,0,2.9,1,3.1,2.7h-1
		c-0.3-1.2-1-1.8-2.1-1.8c-1.7,0-2.8,1.5-2.8,3.9c0,2.5,1.1,3.9,2.9,3.9c0.7,0,1.4-0.2,2.1-0.6v-2.4h-1.9v-0.9H159.6z"/>
	<path d="M166.5,244.7v0.9h-3.8v3.5h4.2v0.9h-5.2v-9.3h5.1v0.9h-4.1v3.1H166.5z"/>
</g>
<g>
	<path fill="#9BA29B" d="M218.1,260.2c0-1.8,1-2.8,2.7-2.8c1.5,0,2.5,0.9,2.5,2.2c0,0.8-0.2,1.3-1.4,2.8c-0.6,0.7-1.3,1.7-1.6,2.1
		c-0.6,0.8-0.6,0.8-0.9,1.2h4.1v0.9H218v-0.8l2.7-3.5c1.3-1.7,1.4-2,1.4-2.7c0-0.8-0.6-1.3-1.5-1.3c-1,0-1.6,0.6-1.7,1.9H218.1z"/>
	<path fill="#9BA29B" d="M230.4,257.5l-0.1,0.9h-3.3l-0.4,2.7c0.5-0.5,0.9-0.6,1.6-0.6c1.6,0,2.7,1.2,2.7,3c0,0.8-0.2,1.5-0.7,2.1
		c-0.6,0.8-1.3,1.2-2.3,1.2c-1.5,0-2.5-0.9-2.6-2.3h1c0.2,0.9,0.7,1.4,1.6,1.4c1.1,0,1.9-1,1.9-2.4c0-1.3-0.7-2.2-1.7-2.2
		c-0.7,0-1.2,0.3-1.6,1l-0.9-0.1l0.6-4.7H230.4z"/>
	<path fill="#9BA29B" d="M238.2,257.3l2.6,8.2l2.6-8.2h1.6v9.3h-1v-8.3l-2.7,8.3h-1.1l-2.7-8.3v8.3h-1v-9.3H238.2z"/>
	<path fill="#9BA29B" d="M248.5,257.9c0,0.4-0.3,0.7-0.7,0.7c-0.4,0-0.7-0.3-0.7-0.7c0-0.4,0.3-0.7,0.7-0.7
		C248.2,257.2,248.5,257.5,248.5,257.9z M248.3,260v6.6h-1V260H248.3z"/>
	<path fill="#9BA29B" d="M252.2,257.3c1.3,0,1.8,0.1,2.3,0.2c0.9,0.3,1.4,1.1,1.4,2.1c0,1.1-0.5,1.7-1.6,2c1.4,0.3,2,1.1,2,2.4
		c0,1.1-0.6,2.1-1.6,2.4c-0.6,0.2-1.1,0.2-2.7,0.2h-1.6v-9.3H252.2z M252.4,261.3c0.9,0,1.4-0.1,1.8-0.3c0.4-0.2,0.7-0.7,0.7-1.3
		c0-0.6-0.3-1.1-0.8-1.3c-0.4-0.1-0.7-0.2-1.7-0.2h-0.8v3.1H252.4z M252.5,265.8c1.1,0,1.6-0.1,2-0.2c0.5-0.2,0.8-0.8,0.8-1.5
		c0-0.8-0.4-1.4-1.1-1.6c-0.4-0.1-0.8-0.2-1.8-0.2h-0.9v3.6H252.5z"/>
</g>
<g>
	<g>
		<path fill="none" stroke="#CBCECA" stroke-miterlimit="10" d="M524.6,166.7l1.6,5.9l1.6-5.9h0.6l1.6,5.9l1.6-5.9h0.8l-2,7h-0.9
			l-1.5-5.5l-1.5,5.5h-0.9l-2-7H524.6z"/>
		<path fill="none" stroke="#CBCECA" stroke-miterlimit="10" d="M533.9,173.7v-6.9h0.8v6.9H533.9z"/>
		<path fill="none" stroke="#CBCECA" stroke-miterlimit="10" d="M540.9,166.7v0.6h-2.1v6.3h-0.7v-6.3h-2v-0.6H540.9z"/>
		<path fill="none" stroke="#CBCECA" stroke-miterlimit="10" d="M546.9,169.7v-3h0.7v6.9h-0.7v-3.3h-3.8v3.3h-0.7v-6.9h0.7v3H546.9z
			"/>
		<path fill="none" stroke="#CBCECA" stroke-miterlimit="10" d="M556.1,166.7l2.5,7h-0.8l-0.7-1.9h-3l-0.7,1.9h-0.8l2.5-7H556.1z
			 M555.6,167.3l-1.3,3.8h2.6L555.6,167.3z"/>
		<path fill="none" stroke="#CBCECA" stroke-miterlimit="10" d="M561.3,166.7c1.2,0,1.7,0,2.2,0.1c0.8,0.2,1.4,0.9,1.4,1.9
			c0,0.9-0.4,1.6-1.1,1.8c-0.4,0.1-1,0.2-2.3,0.2h-0.6v2.9h-0.7v-6.9H561.3z M561.4,170.2c0.7,0,1.1,0,1.5-0.1
			c0.7-0.1,1.1-0.5,1.1-1.3c0-0.7-0.3-1.2-0.8-1.3c-0.4-0.1-0.7-0.1-1.9-0.1h-0.4v2.8H561.4z"/>
		<path fill="none" stroke="#CBCECA" stroke-miterlimit="10" d="M570.5,166.7v0.6h-2.1v6.3h-0.7v-6.3h-2v-0.6H570.5z"/>
	</g>
</g>
<g>
	<g>
		<path fill="none" stroke="#CBCECA" stroke-miterlimit="10" d="M514.3,242.6l1.6,5.9l1.6-5.9h0.6l1.6,5.9l1.6-5.9h0.8l-2,7h-0.9
			l-1.5-5.5l-1.5,5.5h-0.9l-2-7H514.3z"/>
		<path fill="none" stroke="#CBCECA" stroke-miterlimit="10" d="M523.5,249.5v-6.9h0.8v6.9H523.5z"/>
		<path fill="none" stroke="#CBCECA" stroke-miterlimit="10" d="M530.6,242.6v0.6h-2.1v6.3h-0.7v-6.3h-2v-0.6H530.6z"/>
		<path fill="none" stroke="#CBCECA" stroke-miterlimit="10" d="M536.6,245.6v-3h0.7v6.9h-0.7v-3.3h-3.8v3.3H532v-6.9h0.7v3H536.6z"
			/>
		<path fill="none" stroke="#CBCECA" stroke-miterlimit="10" d="M545.5,246c0,2.2-1.3,3.6-3.2,3.6c-2,0-3.2-1.4-3.2-3.7
			c0-2.1,1.3-3.6,3.2-3.6C544.2,242.4,545.5,243.8,545.5,246z M539.9,246c0,1.9,0.9,3,2.4,3c1.5,0,2.4-1.2,2.4-3s-0.9-3-2.4-3
			C540.8,243,539.9,244.2,539.9,246z"/>
		<path fill="none" stroke="#CBCECA" stroke-miterlimit="10" d="M547.9,242.6v4.1c0,1.3,0,1.4,0.3,1.8c0.3,0.4,0.9,0.6,1.7,0.6
			c0.9,0,1.5-0.3,1.8-0.8c0.1-0.3,0.2-0.4,0.2-1.6v-4.1h0.7v4.1v0.5c0,0.8-0.1,1.2-0.4,1.5c-0.4,0.6-1.3,0.9-2.3,0.9
			c-1.1,0-2-0.4-2.4-1.1c-0.2-0.3-0.3-0.7-0.3-1.3v-0.5v-4.1H547.9z"/>
		<path fill="none" stroke="#CBCECA" stroke-miterlimit="10" d="M558.7,242.6v0.6h-2.1v6.3h-0.7v-6.3h-2v-0.6H558.7z"/>
		<path fill="none" stroke="#CBCECA" stroke-miterlimit="10" d="M566.5,242.5l2.5,7h-0.8l-0.7-1.9h-3l-0.7,1.9H563l2.5-7H566.5z
			 M566,243.2l-1.3,3.8h2.6L566,243.2z"/>
		<path fill="none" stroke="#CBCECA" stroke-miterlimit="10" d="M571.6,242.6c1.2,0,1.7,0,2.2,0.1c0.8,0.2,1.4,0.9,1.4,1.9
			c0,0.9-0.4,1.6-1.1,1.8c-0.4,0.1-1,0.2-2.3,0.2h-0.6v2.9h-0.7v-6.9H571.6z M571.8,246c0.7,0,1.1,0,1.5-0.1
			c0.7-0.1,1.1-0.5,1.1-1.3c0-0.7-0.3-1.2-0.8-1.3c-0.4-0.1-0.7-0.1-1.9-0.1h-0.4v2.8H571.8z"/>
		<path fill="none" stroke="#CBCECA" stroke-miterlimit="10" d="M580.8,242.6v0.6h-2.1v6.3H578v-6.3h-2v-0.6H580.8z"/>
	</g>
</g>
</svg>
