<?xml version="1.0" encoding="utf-8"?>
<!-- Generator: Adobe Illustrator 16.0.0, SVG Export Plug-In . SVG Version: 6.00 Build 0)  -->
<!DOCTYPE svg PUBLIC "-//W3C//DTD SVG 1.1//EN" "http://www.w3.org/Graphics/SVG/1.1/DTD/svg11.dtd">
<svg version="1.1" id="Layer_1" xmlns="http://www.w3.org/2000/svg" xmlns:xlink="http://www.w3.org/1999/xlink" x="0px" y="0px"
	 width="640.94px" height="255.47px" viewBox="0 0 640.94 255.47" enable-background="new 0 0 640.94 255.47" xml:space="preserve">
<line fill="none" stroke="#CBCECA" stroke-miterlimit="10" stroke-opacity="0.6" x1="175.5" y1="53" x2="175.5" y2="213"/>
<line fill="none" stroke="#CBCECA" stroke-miterlimit="10" stroke-opacity="0.6" x1="258.5" y1="53" x2="258.5" y2="213"/>
<line fill="none" stroke="#CBCECA" stroke-miterlimit="10" stroke-opacity="0.6" x1="342.5" y1="53" x2="342.5" y2="213"/>
<line fill="none" stroke="#CBCECA" stroke-miterlimit="10" stroke-opacity="0.6" x1="426.5" y1="53" x2="426.5" y2="213"/>
<line fill="none" stroke="#CBCECA" stroke-miterlimit="10" stroke-opacity="0.6" x1="510.5" y1="53" x2="510.5" y2="213"/>
<line fill="none" stroke="#CBCECA" stroke-miterlimit="10" stroke-opacity="0.6" x1="593.5" y1="53" x2="593.5" y2="213"/>
<g>
	<path d="M59.6,23.08c-0.1-1.06-0.76-1.67-1.82-1.67c-0.98,0-1.71,0.6-1.71,1.43c0,0.39,0.2,0.74,0.56,0.98
		c0.31,0.21,0.31,0.21,1.67,0.83c1.23,0.55,1.72,0.85,2.07,1.27c0.34,0.42,0.52,0.97,0.52,1.57c0,1.6-1.23,2.66-3.05,2.66
		c-1.13,0-2.03-0.41-2.56-1.13c-0.36-0.5-0.52-1.01-0.56-1.86h1.02c0.1,1.34,0.84,2.07,2.14,2.07c1.13,0,1.93-0.67,1.93-1.61
		c0-0.46-0.18-0.83-0.56-1.15c-0.29-0.25-0.53-0.38-1.46-0.78c-1.01-0.45-1.62-0.78-1.95-1.05c-0.55-0.45-0.83-1.02-0.83-1.71
		c0-1.42,1.18-2.44,2.82-2.44c1.02,0,1.88,0.41,2.35,1.12c0.28,0.41,0.39,0.81,0.43,1.47H59.6z"/>
	<path d="M62.85,30v-9.34h1.08V30H62.85z"/>
	<path d="M71.57,20.66v0.71l-4.8,7.72h4.72V30h-5.95v-0.81l4.76-7.63h-4.47v-0.9H71.57z"/>
	<path d="M78.04,24.71v0.91h-3.78v3.47h4.17V30h-5.23v-9.34h5.13v0.91h-4.08v3.14H78.04z"/>
	<path d="M90.85,25.32c0,2.87-1.54,4.83-3.8,4.83c-2.3,0-3.81-1.95-3.81-4.9c0-2.79,1.57-4.76,3.81-4.76
		C89.31,20.49,90.85,22.45,90.85,25.32z M84.37,25.27c0,2.42,1.05,3.96,2.69,3.96c1.61,0,2.68-1.55,2.68-3.91
		c0-2.37-1.06-3.91-2.68-3.91S84.37,22.95,84.37,25.27z"/>
	<path d="M97.61,24.71v0.91h-3.78V30h-1.05v-9.34h5.13v0.91h-4.08v3.14H97.61z"/>
	<path d="M104.57,20.66c1.81,0,2.52,0.11,3.28,0.53c1.3,0.71,2.12,2.3,2.12,4.13c0,1.91-0.81,3.46-2.2,4.17
		c-0.77,0.41-1.39,0.5-3.31,0.5h-1.36v-9.34H104.57z M104.83,29.09c1.48,0,1.91-0.08,2.55-0.48c0.94-0.57,1.47-1.75,1.47-3.29
		c0-1.6-0.59-2.82-1.64-3.38c-0.6-0.32-0.99-0.38-2.65-0.38h-0.42v7.52H104.83z"/>
	<path d="M118.99,25.32c0,2.87-1.54,4.83-3.8,4.83c-2.3,0-3.81-1.95-3.81-4.9c0-2.79,1.57-4.76,3.81-4.76
		C117.45,20.49,118.99,22.45,118.99,25.32z M112.51,25.27c0,2.42,1.05,3.96,2.69,3.96c1.61,0,2.68-1.55,2.68-3.91
		c0-2.37-1.06-3.91-2.68-3.91S112.51,22.95,112.51,25.27z"/>
	<path d="M126.4,23.25c-0.27-1.23-0.98-1.83-2.13-1.83c-1.67,0-2.72,1.51-2.72,3.92c0,2.42,1.04,3.91,2.73,3.91
		c1.3,0,2.1-0.84,2.26-2.41h0.99c-0.17,2.13-1.33,3.33-3.21,3.33c-2.38,0-3.89-1.86-3.89-4.8c0-2.96,1.51-4.87,3.85-4.87
		c1.74,0,2.86,1.01,3.1,2.76H126.4z"/>
	<path d="M130.38,20.66V30h-1.05v-9.34H130.38z M135.46,20.66l-3.81,4.41l4.17,4.93h-1.43l-3.99-4.9l3.78-4.44H135.46z"/>
	<path d="M141.98,24.71v0.91h-3.78v3.47h4.17V30h-5.23v-9.34h5.13v0.91h-4.08v3.14H141.98z"/>
	<path d="M145.83,20.66c1.44,0,1.98,0.06,2.59,0.29c0.94,0.36,1.51,1.25,1.51,2.35c0,1.23-0.64,2.07-1.92,2.54l2.45,4.16h-1.26
		l-2.35-3.99h-1.62V30h-1.05v-9.34H145.83z M145.88,25.1c1.13,0,1.46-0.03,1.89-0.18c0.67-0.24,1.05-0.83,1.05-1.62
		c0-0.71-0.32-1.26-0.88-1.5c-0.43-0.2-0.76-0.22-2.09-0.22h-0.63v3.53H145.88z"/>
	<path d="M157.24,20.66c1.26,0,1.77,0.06,2.28,0.22c0.91,0.31,1.44,1.08,1.44,2.1c0,1.06-0.49,1.71-1.55,2.04
		c1.4,0.34,2.04,1.09,2.04,2.37c0,1.15-0.62,2.07-1.57,2.37c-0.6,0.2-1.12,0.24-2.73,0.24h-1.63v-9.34H157.24z M157.45,24.68
		c0.91,0,1.36-0.07,1.75-0.29c0.45-0.24,0.7-0.74,0.7-1.33c0-0.64-0.31-1.15-0.84-1.34c-0.36-0.14-0.69-0.17-1.67-0.17h-0.83v3.14
		H157.45z M157.5,29.12c1.12,0,1.6-0.06,2.02-0.24c0.52-0.22,0.83-0.8,0.83-1.54c0-0.78-0.41-1.39-1.06-1.61
		c-0.42-0.13-0.78-0.17-1.78-0.17h-0.94v3.56H157.5z"/>
	<path d="M166.42,20.6l3.22,9.4h-1.09l-0.83-2.48h-3.52L163.37,30h-1.08l3.22-9.4H166.42z M165.96,21.96l-1.47,4.65h2.94
		L165.96,21.96z"/>
	<path d="M175.54,23.08c-0.1-1.06-0.76-1.67-1.82-1.67c-0.98,0-1.71,0.6-1.71,1.43c0,0.39,0.2,0.74,0.56,0.98
		c0.31,0.21,0.31,0.21,1.67,0.83c1.23,0.55,1.72,0.85,2.07,1.27c0.34,0.42,0.52,0.97,0.52,1.57c0,1.6-1.23,2.66-3.05,2.66
		c-1.13,0-2.03-0.41-2.56-1.13c-0.36-0.5-0.52-1.01-0.56-1.86h1.02c0.1,1.34,0.84,2.07,2.14,2.07c1.13,0,1.93-0.67,1.93-1.61
		c0-0.46-0.18-0.83-0.56-1.15c-0.29-0.25-0.53-0.38-1.46-0.78c-1.01-0.45-1.62-0.78-1.95-1.05c-0.55-0.45-0.83-1.02-0.83-1.71
		c0-1.42,1.18-2.44,2.82-2.44c1.02,0,1.88,0.41,2.35,1.12c0.28,0.41,0.39,0.81,0.43,1.47H175.54z"/>
	<path d="M183.63,24.71v0.91h-3.78v3.47h4.17V30h-5.23v-9.34h5.13v0.91h-4.08v3.14H183.63z"/>
	<path d="M189.31,30v-9.34h1.08V30H189.31z"/>
	<path d="M194.35,20.66l2.62,8.19l2.63-8.19h1.58V30h-0.99v-8.29L197.5,30h-1.05l-2.69-8.29V30h-0.99v-9.34H194.35z"/>
	<path d="M206.8,20.6l3.22,9.4h-1.09l-0.83-2.48h-3.52L203.74,30h-1.08l3.22-9.4H206.8z M206.33,21.96l-1.47,4.65h2.94L206.33,21.96
		z"/>
	<path d="M218.14,25.36v3.84c-0.88,0.64-1.93,0.97-3.08,0.97c-2.52,0-4.03-1.82-4.03-4.86c0-2.94,1.51-4.82,3.89-4.82
		c1.75,0,2.89,0.99,3.1,2.75h-0.98c-0.28-1.25-0.95-1.82-2.12-1.82c-1.72,0-2.77,1.47-2.77,3.91c0,2.49,1.06,3.92,2.93,3.92
		c0.71,0,1.43-0.21,2.12-0.62v-2.35h-1.89v-0.91H218.14z"/>
	<path d="M225.05,24.71v0.91h-3.78v3.47h4.17V30h-5.23v-9.34h5.13v0.91h-4.08v3.14H225.05z"/>
	<path d="M231.65,23.08c-0.1-1.06-0.76-1.67-1.82-1.67c-0.98,0-1.71,0.6-1.71,1.43c0,0.39,0.2,0.74,0.56,0.98
		c0.31,0.21,0.31,0.21,1.67,0.83c1.23,0.55,1.72,0.85,2.07,1.27c0.34,0.42,0.52,0.97,0.52,1.57c0,1.6-1.23,2.66-3.05,2.66
		c-1.13,0-2.03-0.41-2.56-1.13c-0.36-0.5-0.52-1.01-0.56-1.86h1.02c0.1,1.34,0.84,2.07,2.14,2.07c1.13,0,1.93-0.67,1.93-1.61
		c0-0.46-0.18-0.83-0.56-1.15c-0.29-0.25-0.53-0.38-1.46-0.78c-1.01-0.45-1.62-0.78-1.95-1.05c-0.55-0.45-0.83-1.02-0.83-1.71
		c0-1.42,1.18-2.44,2.82-2.44c1.02,0,1.88,0.41,2.35,1.12c0.28,0.41,0.39,0.81,0.43,1.47H231.65z"/>
	<path d="M238.45,20.66l1.81,7.96l1.95-7.96h0.9l1.95,7.96l1.82-7.96h0.98l-2.23,9.4h-1.13l-1.85-7.3l-1.83,7.3h-1.13l-2.21-9.4
		H238.45z"/>
	<path d="M249.27,30v-9.34h1.08V30H249.27z"/>
	<path d="M257.73,20.66v0.91h-2.44V30h-1.05v-8.43h-2.42v-0.91H257.73z"/>
	<path d="M264.65,24.68v-4.02h1.05V30h-1.05v-4.45h-4.38V30h-1.05v-9.34h1.05v4.02H264.65z"/>
	<path d="M272.51,20.66v5.51c0,1.43,0.06,1.78,0.34,2.21c0.35,0.53,1.06,0.85,1.92,0.85c0.99,0,1.78-0.43,2.06-1.15
		c0.15-0.36,0.18-0.73,0.18-1.92v-5.51h1.05v5.52c0,1.48-0.03,1.74-0.22,2.24c-0.45,1.09-1.58,1.74-3.07,1.74
		c-1.5,0-2.63-0.64-3.08-1.74c-0.2-0.5-0.22-0.76-0.22-2.24v-5.52H272.51z"/>
	<path d="M282.05,20.66c1.26,0,1.77,0.06,2.28,0.22c0.91,0.31,1.44,1.08,1.44,2.1c0,1.06-0.49,1.71-1.55,2.04
		c1.4,0.34,2.04,1.09,2.04,2.37c0,1.15-0.62,2.07-1.57,2.37c-0.6,0.2-1.12,0.24-2.73,0.24h-1.63v-9.34H282.05z M282.26,24.68
		c0.91,0,1.36-0.07,1.75-0.29c0.45-0.24,0.7-0.74,0.7-1.33c0-0.64-0.31-1.15-0.84-1.34c-0.36-0.14-0.69-0.17-1.67-0.17h-0.83v3.14
		H282.26z M282.31,29.12c1.12,0,1.6-0.06,2.02-0.24c0.52-0.22,0.83-0.8,0.83-1.54c0-0.78-0.41-1.39-1.06-1.61
		c-0.42-0.13-0.78-0.17-1.78-0.17h-0.94v3.56H282.31z"/>
	<path d="M288.95,20.66v5.51c0,1.43,0.06,1.78,0.34,2.21c0.35,0.53,1.06,0.85,1.92,0.85c0.99,0,1.78-0.43,2.06-1.15
		c0.15-0.36,0.18-0.73,0.18-1.92v-5.51h1.05v5.52c0,1.48-0.03,1.74-0.22,2.24c-0.45,1.09-1.58,1.74-3.07,1.74
		c-1.5,0-2.63-0.64-3.08-1.74c-0.2-0.5-0.22-0.76-0.22-2.24v-5.52H288.95z"/>
	<path d="M297.91,20.66l4.48,7.77v-7.77h0.98V30h-1.15l-4.45-7.76V30h-0.99v-9.34H297.91z"/>
	<path d="M310.78,20.66v0.91h-2.44V30h-1.05v-8.43h-2.42v-0.91H310.78z"/>
	<path d="M313.18,20.66v5.51c0,1.43,0.06,1.78,0.34,2.21c0.35,0.53,1.06,0.85,1.92,0.85c0.99,0,1.78-0.43,2.06-1.15
		c0.15-0.36,0.18-0.73,0.18-1.92v-5.51h1.05v5.52c0,1.48-0.03,1.74-0.22,2.24c-0.45,1.09-1.58,1.74-3.07,1.74
		c-1.5,0-2.63-0.64-3.08-1.74c-0.2-0.5-0.22-0.76-0.22-2.24v-5.52H313.18z"/>
	<path fill="#9BA29B" d="M325.71,22.24c1.16-0.04,1.72-0.45,1.93-1.41h0.7V30h-0.99v-7.1h-1.64V22.24z"/>
	<path fill="#9BA29B" d="M336.25,20.69c-0.98,1.06-1.96,2.38-2.59,3.43c0.36-0.18,0.63-0.25,1.04-0.25c1.48,0,2.55,1.27,2.55,3.08
		c0,1.89-1.09,3.18-2.7,3.18c-1.65,0-2.82-1.32-2.82-3.18c0-1.81,1.04-3.73,3.39-6.26H336.25z M332.78,26.97
		c0,1.33,0.73,2.28,1.72,2.28c1.02,0,1.69-0.91,1.69-2.28c0-1.33-0.7-2.27-1.71-2.27C333.48,24.71,332.78,25.64,332.78,26.97z"/>
	<path fill="#9BA29B" d="M340.82,29.34c0,0.43-0.36,0.8-0.81,0.8c-0.43,0-0.8-0.36-0.8-0.8c0-0.46,0.36-0.81,0.81-0.81
		C340.45,28.53,340.82,28.89,340.82,29.34z"/>
	<path fill="#9BA29B" d="M348.52,25.45c0,2.91-1.12,4.68-3,4.68c-0.83,0-1.55-0.36-2.02-0.99c-0.63-0.88-0.97-2.14-0.97-3.67
		c0-2.97,1.12-4.71,3.03-4.71C347.4,20.75,348.52,22.55,348.52,25.45z M344.19,22.44c-0.39,0.73-0.6,1.78-0.6,3.03
		c0,1.2,0.21,2.27,0.6,2.98c0.28,0.53,0.76,0.83,1.33,0.83c0.59,0,1.06-0.29,1.34-0.83c0.39-0.73,0.6-1.78,0.6-3
		c0-1.22-0.22-2.33-0.6-3.01c-0.28-0.53-0.77-0.83-1.32-0.83C344.95,21.61,344.48,21.89,344.19,22.44z"/>
	<path fill="#9BA29B" d="M356.16,26.9v0.88h-1.57v2.3h-1.02v-2.3h-3.74V27l3.7-6.18h1.05v6.08H356.16z M353.63,22.14l-2.8,4.76h2.79
		L353.63,22.14z"/>
</g>
<g>
	<path d="M123.71,59.96v5.51c0,1.43,0.06,1.78,0.34,2.21c0.35,0.53,1.06,0.85,1.92,0.85c0.99,0,1.78-0.43,2.06-1.15
		c0.15-0.36,0.18-0.73,0.18-1.92v-5.51h1.05v5.52c0,1.48-0.03,1.74-0.22,2.24c-0.45,1.09-1.58,1.74-3.07,1.74
		c-1.5,0-2.63-0.64-3.08-1.74c-0.2-0.5-0.22-0.76-0.22-2.24v-5.52H123.71z"/>
	<path d="M133.24,59.96c1.26,0,1.77,0.06,2.28,0.22c0.91,0.31,1.44,1.08,1.44,2.1c0,1.06-0.49,1.71-1.55,2.04
		c1.4,0.34,2.04,1.09,2.04,2.37c0,1.15-0.62,2.07-1.57,2.37c-0.6,0.2-1.12,0.24-2.73,0.24h-1.63v-9.34H133.24z M133.45,63.98
		c0.91,0,1.36-0.07,1.75-0.29c0.45-0.24,0.7-0.74,0.7-1.33c0-0.64-0.31-1.15-0.84-1.34c-0.36-0.14-0.69-0.17-1.67-0.17h-0.83v3.14
		H133.45z M133.51,68.42c1.12,0,1.6-0.06,2.02-0.24c0.52-0.22,0.83-0.8,0.83-1.54c0-0.78-0.41-1.39-1.06-1.61
		c-0.42-0.13-0.78-0.17-1.78-0.17h-0.94v3.56H133.51z"/>
	<path d="M140.15,59.96v5.51c0,1.43,0.06,1.78,0.34,2.21c0.35,0.53,1.06,0.85,1.92,0.85c0.99,0,1.78-0.43,2.06-1.15
		c0.15-0.36,0.18-0.73,0.18-1.92v-5.51h1.05v5.52c0,1.48-0.03,1.74-0.22,2.24c-0.45,1.09-1.58,1.74-3.07,1.74
		c-1.5,0-2.63-0.64-3.08-1.74c-0.2-0.5-0.22-0.76-0.22-2.24v-5.52H140.15z"/>
	<path d="M149.11,59.96l4.48,7.77v-7.77h0.98v9.34h-1.15l-4.45-7.76v7.76h-0.99v-9.34H149.11z"/>
	<path d="M161.97,59.96v0.91h-2.44v8.43h-1.05v-8.43h-2.42v-0.91H161.97z"/>
	<path d="M164.38,59.96v5.51c0,1.43,0.06,1.78,0.34,2.21c0.35,0.53,1.06,0.85,1.92,0.85c0.99,0,1.78-0.43,2.06-1.15
		c0.15-0.36,0.18-0.73,0.18-1.92v-5.51h1.05v5.52c0,1.48-0.03,1.74-0.22,2.24c-0.45,1.09-1.58,1.74-3.07,1.74
		c-1.5,0-2.63-0.64-3.08-1.74c-0.2-0.5-0.22-0.76-0.22-2.24v-5.52H164.38z"/>
</g>
<g>
	<path d="M34.53,111.85v5.51c0,1.43,0.06,1.78,0.34,2.21c0.35,0.53,1.06,0.85,1.92,0.85c0.99,0,1.78-0.43,2.06-1.15
		c0.15-0.36,0.18-0.73,0.18-1.92v-5.51h1.05v5.52c0,1.48-0.03,1.74-0.22,2.24c-0.45,1.09-1.58,1.74-3.07,1.74
		c-1.5,0-2.63-0.64-3.08-1.74c-0.2-0.5-0.22-0.76-0.22-2.24v-5.52H34.53z"/>
	<path d="M44.06,111.85c1.26,0,1.77,0.06,2.28,0.22c0.91,0.31,1.44,1.08,1.44,2.1c0,1.06-0.49,1.71-1.55,2.04
		c1.4,0.34,2.04,1.09,2.04,2.37c0,1.15-0.62,2.07-1.57,2.37c-0.6,0.2-1.12,0.24-2.73,0.24h-1.63v-9.34H44.06z M44.27,115.87
		c0.91,0,1.36-0.07,1.75-0.29c0.45-0.24,0.7-0.74,0.7-1.33c0-0.64-0.31-1.15-0.84-1.34c-0.36-0.14-0.69-0.17-1.67-0.17h-0.83v3.14
		H44.27z M44.33,120.31c1.12,0,1.6-0.06,2.02-0.24c0.52-0.22,0.83-0.8,0.83-1.54c0-0.78-0.41-1.39-1.06-1.61
		c-0.42-0.13-0.78-0.17-1.78-0.17h-0.94v3.56H44.33z"/>
	<path d="M50.97,111.85v5.51c0,1.43,0.06,1.78,0.34,2.21c0.35,0.53,1.06,0.85,1.92,0.85c0.99,0,1.78-0.43,2.06-1.15
		c0.15-0.36,0.18-0.73,0.18-1.92v-5.51h1.05v5.52c0,1.48-0.03,1.74-0.22,2.24c-0.45,1.09-1.58,1.74-3.07,1.74
		c-1.5,0-2.63-0.64-3.08-1.74c-0.2-0.5-0.22-0.76-0.22-2.24v-5.52H50.97z"/>
	<path d="M59.93,111.85l4.48,7.77v-7.77h0.98v9.34h-1.15l-4.45-7.76v7.76h-0.99v-9.34H59.93z"/>
	<path d="M72.79,111.85v0.91h-2.44v8.43h-1.05v-8.43h-2.42v-0.91H72.79z"/>
	<path d="M75.2,111.85v5.51c0,1.43,0.06,1.78,0.34,2.21c0.35,0.53,1.06,0.85,1.92,0.85c0.99,0,1.78-0.43,2.06-1.15
		c0.15-0.36,0.18-0.73,0.18-1.92v-5.51h1.05v5.52c0,1.48-0.03,1.74-0.22,2.24c-0.45,1.09-1.58,1.74-3.07,1.74
		c-1.5,0-2.63-0.64-3.08-1.74c-0.2-0.5-0.22-0.76-0.22-2.24v-5.52H75.2z"/>
	<path d="M85.66,117.28v0.77h-3.84v-0.77H85.66z"/>
	<path d="M88.33,111.85c1.81,0,2.52,0.11,3.28,0.53c1.3,0.71,2.12,2.3,2.12,4.13c0,1.91-0.81,3.46-2.2,4.17
		c-0.77,0.41-1.39,0.5-3.31,0.5h-1.36v-9.34H88.33z M88.6,120.28c1.48,0,1.91-0.08,2.55-0.48c0.94-0.57,1.47-1.75,1.47-3.29
		c0-1.6-0.59-2.82-1.64-3.38c-0.6-0.32-0.99-0.38-2.65-0.38h-0.42v7.52H88.6z"/>
	<path d="M100.47,115.9v0.91h-3.78v3.47h4.17v0.91h-5.23v-9.34h5.13v0.91h-4.08v3.14H100.47z"/>
	<path d="M104.38,111.85c1.26,0,1.77,0.06,2.28,0.22c0.91,0.31,1.44,1.08,1.44,2.1c0,1.06-0.49,1.71-1.55,2.04
		c1.4,0.34,2.04,1.09,2.04,2.37c0,1.15-0.62,2.07-1.57,2.37c-0.6,0.2-1.12,0.24-2.73,0.24h-1.63v-9.34H104.38z M104.59,115.87
		c0.91,0,1.36-0.07,1.75-0.29c0.45-0.24,0.7-0.74,0.7-1.33c0-0.64-0.31-1.15-0.84-1.34c-0.36-0.14-0.69-0.17-1.67-0.17h-0.83v3.14
		H104.59z M104.64,120.31c1.12,0,1.6-0.06,2.02-0.24c0.52-0.22,0.83-0.8,0.83-1.54c0-0.78-0.41-1.39-1.06-1.61
		c-0.42-0.13-0.78-0.17-1.78-0.17h-0.94v3.56H104.64z"/>
	<path d="M117.47,116.51c0,2.87-1.54,4.83-3.8,4.83c-2.3,0-3.81-1.95-3.81-4.9c0-2.79,1.57-4.76,3.81-4.76
		C115.93,111.68,117.47,113.64,117.47,116.51z M110.98,116.46c0,2.42,1.05,3.96,2.69,3.96c1.61,0,2.68-1.55,2.68-3.91
		c0-2.37-1.06-3.91-2.68-3.91S110.98,114.15,110.98,116.46z"/>
	<path d="M126.51,116.51c0,2.87-1.54,4.83-3.8,4.83c-2.3,0-3.81-1.95-3.81-4.9c0-2.79,1.57-4.76,3.81-4.76
		C124.97,111.68,126.51,113.64,126.51,116.51z M120.03,116.46c0,2.42,1.05,3.96,2.69,3.96c1.61,0,2.68-1.55,2.68-3.91
		c0-2.37-1.06-3.91-2.68-3.91S120.03,114.15,120.03,116.46z"/>
	<path d="M133.44,111.85v0.91H131v8.43h-1.05v-8.43h-2.42v-0.91H133.44z"/>
	<path d="M139.32,114.27c-0.1-1.06-0.76-1.67-1.82-1.67c-0.98,0-1.71,0.6-1.71,1.43c0,0.39,0.2,0.74,0.56,0.98
		c0.31,0.21,0.31,0.21,1.67,0.83c1.23,0.55,1.72,0.85,2.07,1.27c0.34,0.42,0.52,0.97,0.52,1.57c0,1.6-1.23,2.66-3.05,2.66
		c-1.13,0-2.03-0.41-2.56-1.13c-0.36-0.5-0.52-1.01-0.56-1.86h1.02c0.1,1.34,0.84,2.07,2.14,2.07c1.13,0,1.93-0.67,1.93-1.61
		c0-0.46-0.18-0.83-0.56-1.15c-0.29-0.25-0.53-0.38-1.46-0.78c-1.01-0.45-1.62-0.78-1.95-1.05c-0.55-0.45-0.83-1.02-0.83-1.71
		c0-1.42,1.18-2.44,2.82-2.44c1.02,0,1.88,0.41,2.35,1.12c0.28,0.41,0.39,0.81,0.43,1.47H139.32z"/>
	<path d="M147.58,111.85v0.91h-2.44v8.43h-1.05v-8.43h-2.42v-0.91H147.58z"/>
	<path d="M150.72,111.85c1.44,0,1.98,0.06,2.59,0.29c0.94,0.36,1.51,1.25,1.51,2.35c0,1.23-0.64,2.07-1.92,2.54l2.45,4.16h-1.26
		l-2.35-3.99h-1.62v3.99h-1.05v-9.34H150.72z M150.77,116.29c1.13,0,1.46-0.03,1.89-0.18c0.67-0.24,1.05-0.83,1.05-1.62
		c0-0.71-0.32-1.26-0.88-1.5c-0.43-0.2-0.76-0.22-2.09-0.22h-0.63v3.53H150.77z"/>
	<path d="M160.13,111.79l3.22,9.4h-1.09l-0.83-2.48h-3.52l-0.84,2.48h-1.08l3.22-9.4H160.13z M159.66,113.15l-1.47,4.65h2.94
		L159.66,113.15z"/>
	<path d="M166.38,111.85c1.39,0,2,0.06,2.58,0.25c1.02,0.34,1.65,1.32,1.65,2.55c0,1.15-0.55,2.06-1.46,2.42
		c-0.59,0.24-1.16,0.31-2.58,0.31h-0.69v3.81h-1.05v-9.34H166.38z M166.55,116.47c0.97,0,1.3-0.03,1.74-0.13
		c0.78-0.18,1.22-0.8,1.22-1.69c0-0.81-0.35-1.43-0.95-1.67c-0.46-0.18-0.84-0.22-2.12-0.22h-0.55v3.71H166.55z"/>
</g>
<g>
	<path d="M14.04,160.66c1.26,0,1.77,0.06,2.28,0.22c0.91,0.31,1.44,1.08,1.44,2.1c0,1.06-0.49,1.71-1.55,2.04
		c1.4,0.34,2.04,1.09,2.04,2.37c0,1.15-0.62,2.07-1.57,2.37c-0.6,0.2-1.12,0.24-2.73,0.24h-1.63v-9.34H14.04z M14.25,164.68
		c0.91,0,1.36-0.07,1.75-0.29c0.45-0.24,0.7-0.74,0.7-1.33c0-0.64-0.31-1.15-0.84-1.34c-0.36-0.14-0.69-0.17-1.67-0.17h-0.83v3.14
		H14.25z M14.3,169.12c1.12,0,1.6-0.06,2.02-0.24c0.52-0.22,0.83-0.8,0.83-1.54c0-0.78-0.41-1.39-1.06-1.61
		c-0.42-0.13-0.78-0.17-1.78-0.17h-0.94v3.56H14.3z"/>
	<path d="M21.09,160.66v8.43h3.99V170h-5.07v-9.34H21.09z"/>
	<path d="M26.65,170v-9.34h1.08V170H26.65z"/>
	<path d="M35.11,160.66v0.91h-2.44V170h-1.05v-8.43H29.2v-0.91H35.11z"/>
	<path d="M41.85,160.66v0.71l-4.8,7.72h4.72V170h-5.95v-0.81l4.76-7.63h-4.47v-0.9H41.85z"/>
	<path d="M44.62,160.66l4.48,7.77v-7.77h0.98V170h-1.15l-4.45-7.76V170h-0.99v-9.34H44.62z"/>
	<path d="M59.61,165.32c0,2.87-1.54,4.83-3.8,4.83c-2.3,0-3.81-1.95-3.81-4.9c0-2.79,1.57-4.76,3.81-4.76
		C58.07,160.49,59.61,162.45,59.61,165.32z M53.12,165.27c0,2.42,1.05,3.96,2.69,3.96c1.61,0,2.68-1.55,2.68-3.91
		c0-2.37-1.06-3.91-2.68-3.91S53.12,162.95,53.12,165.27z"/>
	<path d="M66.54,160.66v0.91H64.1V170h-1.05v-8.43h-2.42v-0.91H66.54z"/>
	<path d="M72.85,164.71v0.91h-3.78v3.47h4.17V170h-5.23v-9.34h5.13v0.91h-4.08v3.14H72.85z"/>
	<path d="M80.09,160.66h0.98l-5.49,11.43H74.6L80.09,160.66z"/>
	<path d="M84.5,160.66c1.81,0,2.52,0.11,3.28,0.53c1.3,0.71,2.12,2.3,2.12,4.13c0,1.91-0.81,3.46-2.2,4.17
		c-0.77,0.41-1.39,0.5-3.31,0.5h-1.36v-9.34H84.5z M84.76,169.09c1.48,0,1.91-0.08,2.55-0.48c0.94-0.57,1.47-1.75,1.47-3.29
		c0-1.6-0.59-2.82-1.64-3.38c-0.6-0.32-0.99-0.38-2.65-0.38h-0.42v7.52H84.76z"/>
	<path d="M96.64,164.71v0.91h-3.78v3.47h4.17V170H91.8v-9.34h5.13v0.91h-4.08v3.14H96.64z"/>
	<path d="M100.54,160.66c1.26,0,1.77,0.06,2.28,0.22c0.91,0.31,1.44,1.08,1.44,2.1c0,1.06-0.49,1.71-1.55,2.04
		c1.4,0.34,2.04,1.09,2.04,2.37c0,1.15-0.62,2.07-1.57,2.37c-0.6,0.2-1.12,0.24-2.73,0.24h-1.63v-9.34H100.54z M100.75,164.68
		c0.91,0,1.36-0.07,1.75-0.29c0.45-0.24,0.7-0.74,0.7-1.33c0-0.64-0.31-1.15-0.84-1.34c-0.36-0.14-0.69-0.17-1.67-0.17h-0.83v3.14
		H100.75z M100.81,169.12c1.12,0,1.6-0.06,2.02-0.24c0.52-0.22,0.83-0.8,0.83-1.54c0-0.78-0.41-1.39-1.06-1.61
		c-0.42-0.13-0.78-0.17-1.78-0.17h-0.94v3.56H100.81z"/>
	<path d="M113.63,165.32c0,2.87-1.54,4.83-3.8,4.83c-2.3,0-3.81-1.95-3.81-4.9c0-2.79,1.57-4.76,3.81-4.76
		C112.09,160.49,113.63,162.45,113.63,165.32z M107.15,165.27c0,2.42,1.05,3.96,2.69,3.96c1.61,0,2.68-1.55,2.68-3.91
		c0-2.37-1.06-3.91-2.68-3.91S107.15,162.95,107.15,165.27z"/>
	<path d="M122.68,165.32c0,2.87-1.54,4.83-3.8,4.83c-2.3,0-3.81-1.95-3.81-4.9c0-2.79,1.57-4.76,3.81-4.76
		C121.14,160.49,122.68,162.45,122.68,165.32z M116.19,165.27c0,2.42,1.05,3.96,2.69,3.96c1.61,0,2.68-1.55,2.68-3.91
		c0-2.37-1.06-3.91-2.68-3.91S116.19,162.95,116.19,165.27z"/>
	<path d="M129.61,160.66v0.91h-2.44V170h-1.05v-8.43h-2.42v-0.91H129.61z"/>
	<path d="M135.49,163.08c-0.1-1.06-0.76-1.67-1.82-1.67c-0.98,0-1.71,0.6-1.71,1.43c0,0.39,0.2,0.74,0.56,0.98
		c0.31,0.21,0.31,0.21,1.67,0.83c1.23,0.55,1.72,0.85,2.07,1.27c0.34,0.42,0.52,0.97,0.52,1.57c0,1.6-1.23,2.66-3.05,2.66
		c-1.13,0-2.03-0.41-2.56-1.13c-0.36-0.5-0.52-1.01-0.56-1.86h1.02c0.1,1.34,0.84,2.07,2.14,2.07c1.13,0,1.93-0.67,1.93-1.61
		c0-0.46-0.18-0.83-0.56-1.15c-0.29-0.25-0.53-0.38-1.46-0.78c-1.01-0.45-1.62-0.78-1.95-1.05c-0.55-0.45-0.83-1.02-0.83-1.71
		c0-1.42,1.18-2.44,2.82-2.44c1.02,0,1.88,0.41,2.35,1.12c0.28,0.41,0.39,0.81,0.43,1.47H135.49z"/>
	<path d="M143.75,160.66v0.91h-2.44V170h-1.05v-8.43h-2.42v-0.91H143.75z"/>
	<path d="M146.88,160.66c1.44,0,1.98,0.06,2.59,0.29c0.94,0.36,1.51,1.25,1.51,2.35c0,1.23-0.64,2.07-1.92,2.54l2.45,4.16h-1.26
		l-2.35-3.99h-1.62V170h-1.05v-9.34H146.88z M146.94,165.1c1.13,0,1.46-0.03,1.89-0.18c0.67-0.24,1.05-0.83,1.05-1.62
		c0-0.71-0.32-1.26-0.88-1.5c-0.43-0.2-0.76-0.22-2.09-0.22h-0.63v3.53H146.94z"/>
	<path d="M156.29,160.6l3.22,9.4h-1.09l-0.83-2.48h-3.52l-0.84,2.48h-1.08l3.22-9.4H156.29z M155.83,161.96l-1.47,4.65h2.94
		L155.83,161.96z"/>
	<path d="M162.55,160.66c1.39,0,2,0.06,2.58,0.25c1.02,0.34,1.65,1.32,1.65,2.55c0,1.15-0.55,2.06-1.46,2.42
		c-0.59,0.24-1.16,0.31-2.58,0.31h-0.69V170H161v-9.34H162.55z M162.71,165.28c0.97,0,1.3-0.03,1.74-0.13
		c0.78-0.18,1.22-0.8,1.22-1.69c0-0.81-0.35-1.43-0.95-1.67c-0.46-0.18-0.84-0.22-2.12-0.22h-0.55v3.71H162.71z"/>
	<path d="M171,166.09v0.77h-3.84v-0.77H171z"/>
	<path d="M129.46,177.4l3.22,9.4h-1.09l-0.83-2.48h-3.52l-0.84,2.48h-1.08l3.22-9.4H129.46z M129,178.76l-1.47,4.65h2.94L129,178.76
		z"/>
	<path d="M135.76,177.46l2.62,8.19l2.63-8.19h1.58v9.34h-0.99v-8.29l-2.69,8.29h-1.05l-2.69-8.29v8.29h-0.99v-9.34H135.76z"/>
	<path d="M146.47,177.46c1.81,0,2.52,0.11,3.28,0.53c1.3,0.71,2.12,2.3,2.12,4.13c0,1.91-0.81,3.46-2.2,4.17
		c-0.77,0.41-1.39,0.5-3.31,0.5H145v-9.34H146.47z M146.74,185.89c1.48,0,1.91-0.08,2.55-0.48c0.94-0.57,1.47-1.75,1.47-3.29
		c0-1.6-0.59-2.82-1.64-3.38c-0.6-0.32-0.99-0.38-2.65-0.38h-0.42v7.52H146.74z"/>
	<path d="M158.07,177.48c-0.98,1.06-1.96,2.38-2.59,3.43c0.36-0.18,0.63-0.25,1.04-0.25c1.48,0,2.55,1.27,2.55,3.08
		c0,1.89-1.09,3.18-2.7,3.18c-1.65,0-2.82-1.32-2.82-3.18c0-1.81,1.04-3.73,3.39-6.26H158.07z M154.59,183.77
		c0,1.33,0.73,2.28,1.72,2.28c1.02,0,1.69-0.91,1.69-2.28c0-1.33-0.7-2.27-1.71-2.27C155.29,181.5,154.59,182.44,154.59,183.77z"/>
	<path d="M166.94,183.7v0.88h-1.57v2.3h-1.02v-2.3h-3.74v-0.78l3.7-6.18h1.05v6.08H166.94z M164.41,178.94l-2.8,4.76h2.79
		L164.41,178.94z"/>
</g>
<rect x="175" y="58" fill="#00B4D6" width="401" height="16"/>
<rect x="175" y="58" fill="#435469" width="161" height="16"/>
<rect x="175" y="110" fill="#00B4D6" width="290" height="16"/>
<rect x="175" y="110" fill="#435469" width="117" height="16"/>
<rect x="175" y="162" fill="#00B4D6" width="182" height="16"/>
<rect x="175" y="162" fill="#435469" width="67" height="16"/>
<rect x="175" y="162" fill="#A23296" width="43" height="16"/>
<g>
	<path fill="#9BA29B" d="M322.98,182.53l-0.13,0.9h-3.25l-0.38,2.67c0.46-0.46,0.91-0.64,1.57-0.64c1.61,0,2.68,1.19,2.68,2.98
		c0,0.8-0.22,1.54-0.66,2.14c-0.56,0.8-1.3,1.18-2.27,1.18c-1.48,0-2.49-0.9-2.59-2.33h0.95c0.15,0.94,0.73,1.44,1.61,1.44
		c1.13,0,1.9-0.97,1.9-2.38c0-1.3-0.69-2.16-1.72-2.16c-0.74,0-1.23,0.29-1.64,0.99l-0.91-0.1l0.64-4.71H322.98z"/>
	<path fill="#9BA29B" d="M330.45,182.53l-0.13,0.9h-3.25l-0.38,2.67c0.46-0.46,0.91-0.64,1.57-0.64c1.61,0,2.68,1.19,2.68,2.98
		c0,0.8-0.22,1.54-0.66,2.14c-0.56,0.8-1.3,1.18-2.27,1.18c-1.48,0-2.49-0.9-2.59-2.33h0.95c0.15,0.94,0.73,1.44,1.61,1.44
		c1.13,0,1.9-0.97,1.9-2.38c0-1.3-0.69-2.16-1.72-2.16c-0.74,0-1.23,0.29-1.64,0.99l-0.91-0.1l0.64-4.71H330.45z"/>
	<path fill="#9BA29B" d="M338.19,182.3l2.62,8.19l2.63-8.19h1.58v9.34h-0.99v-8.29l-2.69,8.29h-1.05l-2.69-8.29v8.29h-0.99v-9.34
		H338.19z"/>
	<path fill="#9BA29B" d="M348.48,182.9c0,0.41-0.29,0.7-0.71,0.7c-0.41,0-0.71-0.29-0.71-0.7c0-0.42,0.31-0.73,0.73-0.73
		C348.18,182.17,348.48,182.48,348.48,182.9z M348.28,185v6.64h-1.04V185H348.28z"/>
	<path fill="#9BA29B" d="M352.23,182.3c1.26,0,1.77,0.06,2.28,0.22c0.91,0.31,1.44,1.08,1.44,2.1c0,1.06-0.49,1.71-1.55,2.04
		c1.4,0.34,2.04,1.09,2.04,2.37c0,1.15-0.62,2.07-1.57,2.37c-0.6,0.2-1.12,0.24-2.73,0.24h-1.63v-9.34H352.23z M352.44,186.32
		c0.91,0,1.36-0.07,1.75-0.29c0.45-0.24,0.7-0.74,0.7-1.33c0-0.64-0.31-1.15-0.84-1.35c-0.36-0.14-0.69-0.17-1.67-0.17h-0.83v3.14
		H352.44z M352.49,190.76c1.12,0,1.6-0.06,2.02-0.24c0.52-0.22,0.83-0.8,0.83-1.54c0-0.79-0.41-1.39-1.06-1.61
		c-0.42-0.13-0.78-0.17-1.78-0.17h-0.94v3.56H352.49z"/>
</g>
<g>
	<path fill="#9BA29B" d="M426.17,133.84c0-1.43,1.09-2.51,2.55-2.51c1.44,0,2.54,1.08,2.54,2.49c0,0.91-0.36,1.57-1.09,1.96
		c0.9,0.49,1.34,1.23,1.34,2.27c0,1.55-1.16,2.65-2.79,2.65c-1.64,0-2.79-1.09-2.79-2.65c0-1.04,0.43-1.79,1.33-2.27
		C426.53,135.39,426.17,134.73,426.17,133.84z M426.98,138.04c0,1.06,0.71,1.81,1.74,1.81s1.74-0.74,1.74-1.81
		c0-1.05-0.71-1.81-1.71-1.81C427.68,136.23,426.98,136.96,426.98,138.04z M427.22,133.79c0,0.94,0.62,1.6,1.5,1.6
		c0.88,0,1.5-0.66,1.5-1.61c0-0.92-0.62-1.6-1.49-1.6C427.82,132.18,427.22,132.83,427.22,133.79z"/>
	<path fill="#9BA29B" d="M439.01,131.47v0.84l-4.45,8.26h-1.13l4.41-8.15h-4.5v-0.95H439.01z"/>
	<path fill="#9BA29B" d="M446.19,131.23l2.62,8.19l2.63-8.19h1.58v9.34h-0.99v-8.29l-2.69,8.29h-1.05l-2.69-8.29v8.29h-0.99v-9.34
		H446.19z"/>
	<path fill="#9BA29B" d="M456.48,131.83c0,0.41-0.29,0.7-0.71,0.7c-0.41,0-0.71-0.29-0.71-0.7c0-0.42,0.31-0.73,0.73-0.73
		C456.18,131.11,456.48,131.41,456.48,131.83z M456.28,133.93v6.64h-1.04v-6.64H456.28z"/>
	<path fill="#9BA29B" d="M460.23,131.23c1.26,0,1.76,0.06,2.28,0.22c0.91,0.31,1.44,1.08,1.44,2.1c0,1.06-0.49,1.71-1.55,2.04
		c1.4,0.34,2.04,1.09,2.04,2.37c0,1.15-0.62,2.07-1.57,2.37c-0.6,0.2-1.12,0.24-2.73,0.24h-1.62v-9.34H460.23z M460.44,135.25
		c0.91,0,1.36-0.07,1.75-0.29c0.45-0.24,0.7-0.74,0.7-1.33c0-0.64-0.31-1.15-0.84-1.35c-0.36-0.14-0.69-0.17-1.67-0.17h-0.83v3.14
		H460.44z M460.49,139.69c1.12,0,1.6-0.06,2.02-0.24c0.52-0.22,0.83-0.8,0.83-1.54c0-0.79-0.41-1.39-1.06-1.61
		c-0.42-0.13-0.79-0.17-1.78-0.17h-0.94v3.56H460.49z"/>
</g>
<g>
	<path fill="#9BA29B" d="M530.92,80.16c1.16-0.04,1.72-0.45,1.93-1.42h0.7v9.17h-1v-7.1h-1.64V80.16z"/>
	<path fill="#9BA29B" d="M537.08,81.44c0.03-1.79,0.97-2.77,2.66-2.77c1.5,0,2.49,0.88,2.49,2.21c0,0.83-0.24,1.3-1.4,2.84
		c-0.56,0.73-1.27,1.67-1.63,2.12c-0.62,0.78-0.62,0.78-0.9,1.16h4.06v0.91h-5.35v-0.8l2.72-3.54c1.26-1.67,1.44-2,1.44-2.66
		c0-0.8-0.6-1.33-1.5-1.33c-1.04,0-1.6,0.63-1.68,1.86H537.08z"/>
	<path fill="#9BA29B" d="M550.16,83.36c0,2.91-1.12,4.68-3,4.68c-0.83,0-1.55-0.36-2.02-0.99c-0.63-0.88-0.97-2.14-0.97-3.67
		c0-2.97,1.12-4.71,3.03-4.71C549.04,78.67,550.16,80.46,550.16,83.36z M545.83,80.35c-0.39,0.73-0.6,1.78-0.6,3.03
		c0,1.2,0.21,2.27,0.6,2.98c0.28,0.53,0.76,0.83,1.33,0.83c0.59,0,1.07-0.29,1.34-0.83c0.39-0.73,0.6-1.78,0.6-3
		s-0.22-2.33-0.6-3.01c-0.28-0.53-0.77-0.83-1.32-0.83C546.59,79.52,546.13,79.8,545.83,80.35z"/>
	<path fill="#9BA29B" d="M557.19,78.57l2.62,8.19l2.63-8.19h1.58v9.34h-0.99v-8.29l-2.69,8.29h-1.05l-2.69-8.29v8.29h-0.99v-9.34
		H557.19z"/>
	<path fill="#9BA29B" d="M567.47,79.17c0,0.41-0.29,0.7-0.71,0.7c-0.41,0-0.71-0.29-0.71-0.7c0-0.42,0.31-0.73,0.73-0.73
		C567.18,78.45,567.47,78.75,567.47,79.17z M567.28,81.28v6.64h-1.04v-6.64H567.28z"/>
	<path fill="#9BA29B" d="M571.23,78.57c1.26,0,1.77,0.06,2.28,0.22c0.91,0.31,1.44,1.08,1.44,2.1c0,1.06-0.49,1.71-1.55,2.04
		c1.4,0.34,2.04,1.09,2.04,2.37c0,1.15-0.62,2.07-1.57,2.37c-0.6,0.2-1.12,0.24-2.73,0.24h-1.62v-9.34H571.23z M571.44,82.59
		c0.91,0,1.36-0.07,1.75-0.29c0.45-0.24,0.7-0.74,0.7-1.33c0-0.64-0.31-1.15-0.84-1.35c-0.36-0.14-0.69-0.17-1.67-0.17h-0.83v3.14
		H571.44z M571.49,87.03c1.12,0,1.6-0.06,2.02-0.24c0.52-0.22,0.83-0.8,0.83-1.54c0-0.79-0.41-1.39-1.06-1.61
		c-0.42-0.13-0.79-0.17-1.78-0.17h-0.94v3.56H571.49z"/>
</g>
<g>
	<path fill="#784191" d="M176.64,223.04c1.54,0,2.07,0.07,2.7,0.39c1.11,0.55,1.78,1.72,1.78,3.11c0,1.4-0.7,2.59-1.85,3.1
		c-0.64,0.29-1.18,0.36-2.75,0.36h-1.22v-6.96H176.64z M176.85,229.17c1.18,0,1.6-0.07,2.07-0.32c0.74-0.41,1.16-1.25,1.16-2.31
		c0-1.13-0.48-2.02-1.29-2.41c-0.46-0.22-0.77-0.27-2.16-0.27h-0.34v5.31H176.85z"/>
	<path fill="#784191" d="M189.01,226.53c0,2.16-1.33,3.63-3.28,3.63c-1.99,0-3.29-1.46-3.29-3.68c0-2.1,1.34-3.57,3.29-3.57
		C187.68,222.9,189.01,224.37,189.01,226.53z M183.48,226.48c0,1.74,0.88,2.84,2.26,2.84c1.34,0,2.24-1.12,2.24-2.8
		c0-1.7-0.9-2.8-2.24-2.8S183.48,224.83,183.48,226.48z"/>
	<path fill="#784191" d="M191,223.04l1.53,5.69l1.48-5.69h0.85l1.48,5.69l1.53-5.69h1.01l-1.95,7h-1.12l-1.39-5.13l-1.39,5.13h-1.12
		l-1.95-7H191z"/>
	<path fill="#784191" d="M201.3,223.04l3.57,5.44v-5.44h0.98V230h-1.08l-3.56-5.46V230h-0.98v-6.96H201.3z"/>
	<path fill="#784191" d="M208.89,223.04v6.14h3.33V230h-4.34v-6.96H208.89z"/>
	<path fill="#784191" d="M219.84,226.53c0,2.16-1.33,3.63-3.28,3.63c-1.99,0-3.29-1.46-3.29-3.68c0-2.1,1.34-3.57,3.29-3.57
		C218.51,222.9,219.84,224.37,219.84,226.53z M214.31,226.48c0,1.74,0.88,2.84,2.26,2.84c1.34,0,2.24-1.12,2.24-2.8
		c0-1.7-0.9-2.8-2.24-2.8S214.31,224.83,214.31,226.48z"/>
	<path fill="#784191" d="M224.61,223l2.54,7h-1.08l-0.63-1.81h-2.87l-0.63,1.81h-1.08l2.54-7H224.61z M225.19,227.42l-1.19-3.5
		l-1.18,3.5H225.19z"/>
	<path fill="#784191" d="M229.85,223.04c1.54,0,2.07,0.07,2.7,0.39c1.11,0.55,1.78,1.72,1.78,3.11c0,1.4-0.7,2.59-1.85,3.1
		c-0.64,0.29-1.18,0.36-2.75,0.36h-1.22v-6.96H229.85z M230.06,229.17c1.18,0,1.6-0.07,2.07-0.32c0.74-0.41,1.16-1.25,1.16-2.31
		c0-1.13-0.48-2.02-1.29-2.41c-0.46-0.22-0.77-0.27-2.16-0.27h-0.34v5.31H230.06z"/>
</g>
<g>
	<path fill="#435469" d="M329.44,226.51v2.66c-0.76,0.67-1.61,0.98-2.66,0.98c-2.07,0-3.33-1.37-3.33-3.63
		c0-2.23,1.26-3.63,3.25-3.63c0.94,0,1.72,0.29,2.17,0.81c0.31,0.35,0.45,0.71,0.55,1.36h-0.94c-0.24-0.92-0.8-1.34-1.76-1.34
		c-1.39,0-2.23,1.06-2.23,2.83c0,1.74,0.87,2.77,2.34,2.77c0.66,0,1.23-0.2,1.77-0.63v-1.4h-1.47v-0.79H329.44z"/>
	<path fill="#435469" d="M335.46,223.04v0.64l-3.53,5.49h3.53V230h-4.71v-0.71l3.5-5.43h-3.29v-0.81H335.46z"/>
</g>
<g>
	<path fill="#0081AE" d="M526.29,225.99v0.83h-3.11v2.35h3.46V230h-4.46v-6.96h4.37v0.83h-3.38v2.13H526.29z"/>
	<path fill="#0081AE" d="M528.84,223.04l1.74,2.62l1.71-2.62h1.18l-2.28,3.36l2.41,3.6h-1.18l-1.85-2.83l-1.85,2.83h-1.18l2.42-3.6
		l-2.28-3.36H528.84z"/>
	<path fill="#0081AE" d="M536.31,223.04c1.18,0,1.68,0.03,2.16,0.14c0.85,0.21,1.4,0.97,1.4,2c0,0.92-0.48,1.67-1.22,1.88
		c-0.45,0.14-1.04,0.18-2.19,0.18h-0.59V230h-0.99v-6.96H536.31z M536.45,226.41c0.74,0,1.09-0.01,1.44-0.07
		c0.63-0.08,0.94-0.48,0.94-1.16c0-0.63-0.25-1.05-0.71-1.19c-0.35-0.1-0.73-0.13-1.76-0.13h-0.48v2.55H536.45z"/>
	<path fill="#0081AE" d="M544.41,223l2.54,7h-1.08l-0.63-1.81h-2.87l-0.63,1.81h-1.08l2.54-7H544.41z M544.98,227.42l-1.19-3.5
		l-1.18,3.5H544.98z"/>
	<path fill="#0081AE" d="M549.38,223.04l3.57,5.44v-5.44h0.98V230h-1.08l-3.56-5.46V230h-0.98v-6.96H549.38z"/>
	<path fill="#0081AE" d="M557.29,223.04c1.54,0,2.07,0.07,2.7,0.39c1.11,0.55,1.78,1.72,1.78,3.11c0,1.4-0.7,2.59-1.85,3.1
		c-0.64,0.29-1.18,0.36-2.75,0.36h-1.22v-6.96H557.29z M557.49,229.17c1.18,0,1.6-0.07,2.07-0.32c0.74-0.41,1.16-1.25,1.16-2.31
		c0-1.13-0.48-2.02-1.29-2.41c-0.46-0.22-0.77-0.27-2.16-0.27h-0.34v5.31H557.49z"/>
	<path fill="#0081AE" d="M567.55,225.99v0.83h-3.11v2.35h3.46V230h-4.46v-6.96h4.37v0.83h-3.38v2.13H567.55z"/>
	<path fill="#0081AE" d="M570.85,223.04c1.54,0,2.07,0.07,2.7,0.39c1.11,0.55,1.78,1.72,1.78,3.11c0,1.4-0.7,2.59-1.85,3.1
		c-0.64,0.29-1.18,0.36-2.75,0.36h-1.22v-6.96H570.85z M571.06,229.17c1.18,0,1.6-0.07,2.07-0.32c0.74-0.41,1.16-1.25,1.16-2.31
		c0-1.13-0.48-2.02-1.29-2.41c-0.46-0.22-0.77-0.27-2.16-0.27h-0.34v5.31H571.06z"/>
</g>
</svg>
